<?xml version="1.0" encoding="UTF-8" standalone="no"?>
<svg
   xmlns:dc="http://purl.org/dc/elements/1.1/"
   xmlns:cc="http://creativecommons.org/ns#"
   xmlns:rdf="http://www.w3.org/1999/02/22-rdf-syntax-ns#"
   xmlns:svg="http://www.w3.org/2000/svg"
   xmlns="http://www.w3.org/2000/svg"
   version="1.1"
   id="svg917"
   width="6999"
   height="7000"
   viewBox="0 0 6999 7000">
  <metadata
     id="metadata923">
    <rdf:RDF>
      <cc:Work
         rdf:about="">
        <dc:format>image/svg+xml</dc:format>
        <dc:type
           rdf:resource="http://purl.org/dc/dcmitype/StillImage" />
        <dc:title></dc:title>
      </cc:Work>
    </rdf:RDF>
  </metadata>
  <defs
     id="defs921" />
  <g
     id="g925">
    <path
       style="fill:#ff6600;fill-opacity:0.87450981;opacity:0.7073955"
       d="m 3887.4245,6681.6461 c -4.675,-0.4148 -13.675,-0.5069 -20,-0.2046 -6.6354,0.3172 -14.4611,0.073 -18.5,-0.578 -3.85,-0.6203 -17.125,-1.5228 -29.5,-2.0058 -12.375,-0.4829 -29.025,-1.7814 -37,-2.8854 -7.975,-1.1041 -21.925,-2.2556 -31,-2.559 -9.6784,-0.3235 -23.3216,-1.5859 -33,-3.0537 -9.075,-1.3762 -24.3188,-3.4899 -33.8752,-4.6971 -16.8381,-2.1271 -17.4168,-2.138 -18.7203,-0.3554 -1.6303,2.2296 5.4841,3.582 -142.4045,-27.0702 -142.1654,-29.466 -142.2599,-29.487 -142.5841,-31.7329 -0.1462,-1.0129 -0.4121,-1.9476 -0.5909,-2.077 -0.798,-0.5777 -14.5806,-4.7316 -28.325,-8.5368 -29.9075,-8.2801 -40.1994,-11.4705 -51,-15.8095 -13.0721,-5.2515 -17.6836,-6.7754 -35.5,-11.7312 -7.425,-2.0653 -18.675,-6.1482 -25,-9.0732 -6.325,-2.9249 -17.125,-6.9688 -24,-8.9864 -6.875,-2.0176 -17.225,-5.8172 -23,-8.4437 -5.775,-2.6264 -15.9,-6.6753 -22.5,-8.9975 -6.6,-2.3222 -14.5514,-5.7896 -17.6697,-7.7052 -3.1184,-1.9157 -11.3001,-5.4105 -18.1817,-7.7662 -6.8815,-2.3557 -15.4266,-5.9131 -18.989,-7.9053 -3.5624,-1.9922 -10.6807,-5.2248 -15.8184,-7.1835 -5.1376,-1.9587 -12.9412,-5.516 -17.3412,-7.905 -4.4,-2.389 -11.6,-5.7325 -16,-7.4301 -4.4,-1.6975 -10.5998,-4.8584 -13.7774,-7.0241 -3.1776,-2.1658 -9.3732,-5.1352 -13.768,-6.5988 -4.3949,-1.4636 -10.6922,-4.4652 -13.9942,-6.6702 -3.302,-2.205 -9.4814,-5.4723 -13.732,-7.2606 -4.2506,-1.7884 -10.0603,-4.8437 -12.9103,-6.7894 -2.8501,-1.9458 -8.2501,-4.7144 -12,-6.1525 -3.75,-1.4381 -7.9951,-3.4017 -9.4336,-4.3635 -8.4824,-5.6713 -11.0335,-7.1087 -17.1425,-9.6592 -3.7169,-1.5517 -8.6669,-4.2787 -11,-6.0599 -2.3331,-1.7813 -7.8402,-4.901 -12.238,-6.9327 -4.3978,-2.0317 -9.1228,-4.7505 -10.5,-6.0416 -1.3772,-1.2912 -5.8114,-3.9671 -9.8539,-5.9466 -4.0424,-1.9794 -8.7597,-4.7853 -10.4828,-6.2352 -1.7231,-1.4499 -6.31,-4.084 -10.1931,-5.8536 -3.883,-1.7696 -8.6635,-4.6252 -10.6233,-6.3459 -1.9597,-1.7207 -6.477,-4.4359 -10.0385,-6.0338 -3.5614,-1.5979 -8.0136,-4.2487 -9.8938,-5.8907 -1.8802,-1.6419 -5.696,-4.1342 -8.4794,-5.5384 -2.7834,-1.4042 -7.0311,-4.1992 -9.4392,-6.2111 -2.4081,-2.0119 -6.6558,-4.7949 -9.4392,-6.1843 -2.7834,-1.3894 -6.4108,-3.8007 -8.0608,-5.3584 -1.65,-1.5577 -5.8404,-4.2367 -9.3119,-5.9533 -3.4716,-1.7166 -8.0225,-4.6664 -10.1131,-6.5552 -2.0906,-1.8887 -6.2544,-4.5572 -9.253,-5.93 -2.9986,-1.3728 -6.5477,-3.6683 -7.887,-5.1011 -1.3392,-1.4327 -5.36,-4.3207 -8.935,-6.4177 -3.575,-2.097 -7.625,-5.0249 -9,-6.5066 -1.375,-1.4816 -5.0706,-3.9967 -8.2123,-5.589 -3.1418,-1.5924 -6.1724,-3.7546 -6.7345,-4.805 -0.5622,-1.0505 -3.8416,-3.4884 -7.2877,-5.4177 -3.446,-1.9292 -7.2149,-4.6028 -8.3754,-5.9411 -1.1604,-1.3384 -4.5997,-3.858 -7.6429,-5.5992 -3.0432,-1.7411 -6.2644,-4.2817 -7.1581,-5.6458 -0.8938,-1.3641 -3.789,-3.5767 -6.4339,-4.9169 -2.6448,-1.3403 -5.8992,-3.6224 -7.232,-5.0715 -1.3327,-1.4491 -5.2357,-4.4463 -8.6732,-6.6606 -3.4375,-2.2142 -6.25,-4.4139 -6.25,-4.8882 0,-0.4743 -2.1375,-2.3145 -4.75,-4.0895 -2.6125,-1.7749 -7.1488,-5.3965 -10.0806,-8.048 -2.9318,-2.6515 -5.7395,-4.8209 -6.2394,-4.8209 -0.4999,0 -3.3934,-2.25 -6.43,-5 -3.0366,-2.75 -5.9933,-5 -6.5704,-5 -0.5771,0 -3.3849,-2.1712 -6.2395,-4.825 -2.8545,-2.6537 -6.831,-5.8116 -8.8366,-7.0176 -2.0056,-1.2059 -4.397,-3.3379 -5.3142,-4.7377 -0.9171,-1.3998 -3.6252,-3.7866 -6.0178,-5.304 -2.3927,-1.5173 -5.5218,-4.151 -6.9535,-5.8526 -1.4318,-1.7015 -4.6121,-4.271 -7.0672,-5.7098 -2.4552,-1.4388 -4.929,-3.485 -5.4974,-4.547 -0.5684,-1.0619 -3.1346,-3.3766 -5.7029,-5.1435 -2.5682,-1.767 -6.5668,-5.0465 -8.8859,-7.2877 -2.3191,-2.2413 -6.6236,-6.1955 -9.5656,-8.7872 -2.9419,-2.5916 -7.599,-6.8094 -10.349,-9.3729 -2.75,-2.5634 -6.6193,-5.7452 -8.5985,-7.0705 -1.9791,-1.3254 -4.1927,-3.52 -4.919,-4.8771 -0.7262,-1.3571 -1.6694,-2.4674 -2.0959,-2.4674 -0.4265,0 -3.7265,-2.8125 -7.3333,-6.25 -3.6067,-3.4375 -9.5121,-8.95 -13.123,-12.25 -3.6109,-3.3 -7.5474,-7.0576 -8.7478,-8.3503 -1.2004,-1.2927 -3.2646,-3.3177 -4.5871,-4.5 -3.5183,-3.1453 -13.7448,-12.7896 -16.3485,-15.4177 -1.2358,-1.2475 -3.7457,-3.7225 -5.5775,-5.5 -1.8318,-1.7776 -6.1976,-6.157 -9.7017,-9.732 -3.5042,-3.575 -13.0113,-13.235 -21.1271,-21.4666 -8.1157,-8.2317 -19.118,-19.7757 -24.4495,-25.6535 -5.3315,-5.8777 -13.5631,-14.6442 -18.2924,-19.4812 -4.7293,-4.8369 -8.5987,-9.1693 -8.5987,-9.6274 0,-0.4581 -2.1375,-2.9729 -4.75,-5.5885 -5.8082,-5.8151 -12.5798,-13.5437 -17.25,-19.6879 -4.285,-5.6374 -9.7173,-12.0776 -16.8657,-19.9949 -7.3018,-8.0873 -11.5125,-13.0369 -16.1635,-19 -5.5151,-7.071 -10.8271,-13.7281 -15.4708,-19.3883 -2.2,-2.6816 -6.025,-7.4624 -8.5,-10.624 -2.475,-3.1616 -5.9625,-7.3584 -7.75,-9.3264 -1.7875,-1.9679 -3.25,-3.8916 -3.25,-4.275 0,-0.3834 -1.5575,-2.6521 -3.461,-5.0417 -1.9036,-2.3895 -4.9411,-6.2818 -6.75,-8.6495 -1.809,-2.3676 -4.9104,-6.1926 -6.8922,-8.5 -1.9818,-2.3073 -6.9318,-8.6466 -11,-14.0873 -4.0682,-5.4407 -8.6358,-11.5157 -10.1502,-13.5 -1.5144,-1.9843 -3.5394,-4.9065 -4.5,-6.4939 -0.9606,-1.5874 -2.9841,-4.1904 -4.4966,-5.7845 -1.5125,-1.5941 -2.75,-3.2903 -2.75,-3.7693 0,-0.479 -1.575,-2.756 -3.5,-5.0601 -1.925,-2.3041 -3.5,-4.7519 -3.5,-5.4396 0,-0.6877 -0.9479,-2.1077 -2.1064,-3.1554 -1.1585,-1.0478 -2.9107,-3.48 -3.8936,-5.405 -0.9829,-1.925 -2.7351,-4.3572 -3.8936,-5.405 -1.1585,-1.0477 -2.1064,-2.4677 -2.1064,-3.1554 0,-0.6877 -1.4625,-3.0409 -3.25,-5.2293 -1.7875,-2.1884 -4.0358,-5.2685 -4.9962,-6.8446 -0.9604,-1.5761 -2.9854,-4.7222 -4.5,-6.9914 -1.5146,-2.2691 -3.5413,-5.3066 -4.5038,-6.75 -0.9625,-1.4433 -2.5375,-3.8053 -3.5,-5.2486 -0.9625,-1.4434 -2.875,-4.2977 -4.25,-6.3428 -3.6913,-5.4904 -6.5001,-9.9481 -9.6717,-15.3496 -1.5556,-2.6492 -4.0658,-6.4235 -5.5783,-8.3875 -1.5125,-1.9639 -2.75,-3.9137 -2.75,-4.3328 0,-0.9342 -6.0243,-10.2785 -13.5149,-20.963 -1.3496,-1.925 -3.3236,-5.3629 -4.3867,-7.6398 -1.0631,-2.2769 -2.4073,-4.4331 -2.9872,-4.7915 -0.5798,-0.3583 -1.9685,-2.5454 -3.086,-4.8601 -1.8455,-3.8228 -3.2952,-6.0967 -8.7385,-13.7064 -0.9827,-1.3737 -2.5273,-4.1307 -3.4326,-6.1266 -0.9052,-1.9959 -2.1299,-3.928 -2.7215,-4.2936 -0.5916,-0.3657 -1.996,-2.5587 -3.1209,-4.8734 -1.1249,-2.3147 -3.7253,-7.1719 -5.7785,-10.7937 -2.0533,-3.6218 -6.4332,-11.4341 -9.7332,-17.3605 -3.3,-5.9265 -7.2051,-12.8632 -8.6779,-15.4149 -4.7076,-8.1557 -7.6501,-13.5051 -10.3676,-18.8478 -1.4571,-2.8646 -3.2804,-5.7322 -4.0518,-6.3725 -0.7715,-0.6402 -1.4027,-1.6281 -1.4027,-2.1952 0,-0.8933 -13.5359,-28.5938 -15.9907,-32.724 -0.4903,-0.825 -2.6701,-5.325 -4.8439,-10 -5.6514,-12.1539 -11.8106,-24.6652 -15.5073,-31.5 -0.8925,-1.65 -2.3432,-4.575 -3.2238,-6.5 -0.8807,-1.925 -2.9137,-6.1594 -4.5178,-9.4097 -1.6041,-3.2504 -2.9165,-6.4522 -2.9165,-7.1152 0,-0.6629 -0.8566,-2.2944 -1.9036,-3.6254 -1.047,-1.3311 -2.4002,-4.2643 -3.0072,-6.5184 -0.607,-2.2541 -1.7464,-4.6318 -2.5321,-5.2839 -0.7857,-0.6521 -1.7289,-2.5533 -2.0961,-4.2249 -0.6305,-2.8709 -3.6346,-10.0232 -8.9557,-21.3225 -3.5265,-7.4886 -8.2226,-18.6708 -9.0292,-21.5 -0.392,-1.375 -1.2775,-3.175 -1.968,-4 -0.6904,-0.825 -1.819,-3.3 -2.5081,-5.5 -0.6891,-2.2 -1.8271,-4.675 -2.5291,-5.5 -0.7019,-0.825 -1.9599,-3.75 -2.7957,-6.5 -0.8357,-2.75 -2.4545,-6.7826 -3.5973,-8.9614 -1.1429,-2.1788 -2.0796,-4.6538 -2.0816,-5.5 0,-0.8462 -0.8233,-2.8886 -1.8249,-4.5386 -1.0016,-1.65 -2.3839,-5.25 -3.0717,-8 -0.6878,-2.75 -2.1166,-6.4031 -3.1751,-8.118 -1.0585,-1.715 -1.9246,-3.9823 -1.9246,-5.0386 0,-1.0563 -0.9159,-3.7032 -2.0353,-5.882 -1.1195,-2.1788 -2.5257,-5.9864 -3.125,-8.4614 -0.5993,-2.475 -1.7696,-5.5901 -2.6007,-6.9223 -0.831,-1.3323 -2.0837,-4.4823 -2.7836,-7 -1.3648,-4.9088 -4.5103,-13.0991 -7.519,-19.5777 -1.0217,-2.2 -2.3836,-6.1565 -3.0264,-8.7923 -0.6428,-2.6358 -2.0105,-6.4434 -3.0394,-8.4614 -1.0288,-2.0181 -1.8805,-4.5865 -1.8926,-5.7077 -0.012,-1.1212 -0.8607,-3.8856 -1.8859,-6.143 -1.0251,-2.2573 -2.3632,-6.4326 -2.9735,-9.2783 -0.6103,-2.8457 -1.7434,-6.1737 -2.518,-7.3957 -0.7746,-1.2219 -1.7194,-4.2466 -2.0994,-6.7216 -0.3801,-2.475 -1.5165,-5.9343 -2.5254,-7.6874 -1.009,-1.7531 -2.1401,-5.3531 -2.5135,-8 -0.3735,-2.6469 -1.3823,-5.9268 -2.2418,-7.2886 -0.8595,-1.3618 -2.1269,-4.9618 -2.8164,-8 -0.6895,-3.0382 -1.9509,-7.549 -2.8029,-10.024 -2.5168,-7.3104 -4.6854,-14.2275 -5.8,-18.5 -0.574,-2.2 -1.6971,-6.025 -2.4958,-8.5 -0.7988,-2.475 -2.0123,-7.425 -2.6968,-11 -0.6845,-3.575 -1.8054,-7.537 -2.4909,-8.8045 -0.6855,-1.2674 -1.6838,-5.0208 -2.2185,-8.3408 -0.5347,-3.32 -1.6038,-7.008 -2.3759,-8.1955 -0.772,-1.1876 -1.6916,-4.6342 -2.0435,-7.6592 -0.3518,-3.025 -1.5037,-7.6084 -2.5597,-10.1854 -1.0561,-2.5769 -1.93,-6.1769 -1.9421,-8 -0.012,-1.823 -0.8817,-5.2084 -1.9325,-7.523 -1.0507,-2.3146 -2.2033,-6.3646 -2.5611,-9 -0.3578,-2.6354 -1.5132,-7.3809 -2.5675,-10.5456 -1.0543,-3.1647 -1.9169,-7.2303 -1.9169,-9.0346 0,-1.8044 -0.9,-5.8414 -2,-8.9711 -1.1,-3.1297 -2,-7.4849 -2,-9.6783 0,-2.1934 -0.9,-6.2713 -2,-9.062 -1.1,-2.7907 -2.0099,-7.1949 -2.022,-9.787 -0.012,-2.5922 -0.912,-6.6746 -2,-9.0722 -1.0879,-2.3976 -1.978,-6.1083 -1.978,-8.246 0,-2.1378 -0.8584,-6.4761 -1.9075,-9.6408 -1.0491,-3.1647 -2.1483,-8.679 -2.4425,-12.254 -0.2943,-3.575 -1.2359,-8.173 -2.0925,-10.2179 -0.8566,-2.0448 -1.5575,-6.4232 -1.5575,-9.7297 0,-3.3066 -0.6366,-7.7085 -1.4147,-9.7822 -0.7781,-2.0736 -1.6753,-6.968 -1.9936,-10.8764 -0.3184,-3.9084 -1.2568,-9.0275 -2.0853,-11.3757 -0.8285,-2.3483 -1.517,-6.5755 -1.5299,-9.3938 -0.013,-2.8184 -0.913,-8.4689 -2,-12.5567 -1.0871,-4.0878 -1.9765,-9.7687 -1.9765,-12.6242 0,-2.8556 -0.675,-7.1051 -1.5,-9.4434 -0.825,-2.3383 -1.5,-7.4984 -1.5,-11.4668 0,-3.9684 -0.6701,-9.4244 -1.4892,-12.1243 -0.819,-2.6999 -1.4989,-8.5089 -1.5108,-12.9089 -0.012,-4.4 -0.6918,-10.209 -1.5108,-12.9089 -0.8191,-2.6999 -1.4892,-8.4081 -1.4892,-12.6849 0,-4.2768 -0.4743,-9.0235 -1.054,-10.5482 -0.5797,-1.5247 -1.2628,-7.4602 -1.5181,-13.1899 -0.2553,-5.7298 -0.7925,-10.9241 -1.1938,-11.5429 -0.4013,-0.6189 -1.0744,-7.4252 -1.4958,-15.1252 -0.8468,-15.47 -2.159,-35.52 -3.8453,-58.75 -0.6088,-8.3875 -1.262,-21.775 -1.4516,-29.75 -1.3879,-58.3881 -1.7397,-98.7961 -1.1057,-127 0.8435,-37.5205 2.6089,-77.4321 3.6714,-83 0.5772,-3.025 1.4609,-14.95 1.9638,-26.5 0.5028,-11.55 1.8089,-27.75 2.9025,-36 1.0935,-8.25 2.2668,-19.725 2.6074,-25.5 0.7251,-12.294 3.0485,-32.9385 5.0646,-45 1.4518,-8.6858 4.3906,-27.5684 13.9576,-89.6812 2.9803,-19.3496 6.5854,-40.9496 8.0112,-48 4.7365,-23.4208 19.4199,-84.5453 24.9394,-103.8188 2.9927,-10.45 8.6228,-31.825 12.5115,-47.5 7.9509,-32.0497 8.5446,-34.0594 14.7027,-49.7701 2.4297,-6.1986 7.1194,-20.7695 10.4216,-32.3799 3.3021,-11.6104 8.4092,-27.0138 11.349,-34.2299 2.9398,-7.216 6.5485,-17.1701 8.0193,-22.1201 3.6152,-12.1669 5.9367,-18.3573 9.6221,-25.658 1.7081,-3.3839 5.5135,-13.4669 8.4562,-22.4066 2.9428,-8.9398 7.1436,-19.8204 9.3352,-24.1792 2.1915,-4.3588 5.6145,-12.6076 7.6066,-18.3307 1.9921,-5.7231 5.5775,-14.0101 7.9676,-18.4156 2.3901,-4.4054 5.9766,-12.7349 7.9699,-18.5099 1.9934,-5.775 5.1301,-12.975 6.9704,-16 3.0611,-5.0317 5.2348,-10.0625 10.0536,-23.268 0.9569,-2.6225 3.2049,-6.8978 4.9954,-9.5008 1.7906,-2.603 4.9358,-9.0073 6.9895,-14.2319 2.0536,-5.2246 5.2644,-11.7493 7.1351,-14.4993 1.8706,-2.75 4.9823,-9.0399 6.9148,-13.9775 1.9325,-4.9377 4.9274,-10.9462 6.6554,-13.3523 1.7279,-2.4062 4.6694,-8.2663 6.5366,-13.0225 1.8672,-4.7562 5.125,-11.1227 7.2396,-14.1477 2.1146,-3.025 4.8786,-7.975 6.1423,-11 1.2636,-3.025 3.5689,-7.3 5.1229,-9.5 1.554,-2.2 4.7849,-8.05 7.1797,-13 2.3949,-4.95 5.5429,-10.4117 6.9957,-12.137 1.4528,-1.7254 4.3746,-6.9004 6.493,-11.5 2.1184,-4.5997 5.0058,-9.73 6.4165,-11.4008 1.4107,-1.6708 4.3361,-6.8458 6.501,-11.5 2.1648,-4.6542 4.9548,-9.3622 6.1999,-10.4622 1.2452,-1.1 3.8474,-5.15 5.7827,-9 1.9354,-3.85 4.8746,-8.5509 6.5316,-10.4464 1.657,-1.8955 4.0219,-5.7281 5.2552,-8.5169 1.2333,-2.7888 3.9019,-7.0568 5.9301,-9.4845 2.0283,-2.4276 4.9323,-7.1587 6.4534,-10.5134 1.5211,-3.3547 4.1301,-7.6608 5.7976,-9.5691 1.6676,-1.9084 4.4238,-6.236 6.1249,-9.617 1.7011,-3.381 4.4936,-7.656 6.2056,-9.5 1.712,-1.844 4.2038,-5.4752 5.5374,-8.0693 1.3335,-2.5941 3.9689,-6.2608 5.8563,-8.1482 1.8874,-1.8875 4.6447,-5.8254 6.1271,-8.7509 1.4825,-2.9256 3.9979,-6.5359 5.5898,-8.0229 1.5919,-1.4871 3.8337,-4.8274 4.9819,-7.4231 1.1482,-2.5957 3.7802,-6.5687 5.849,-8.8289 2.0687,-2.2602 4.7384,-6.0407 5.9327,-8.4013 1.1942,-2.3605 3.7644,-5.9605 5.7114,-8 1.9469,-2.0394 4.6766,-5.9581 6.0659,-8.7081 1.3893,-2.75 3.7836,-6.0107 5.3206,-7.246 1.5371,-1.2353 4.1814,-4.7031 5.8762,-7.7062 1.6948,-3.003 3.9542,-5.9272 5.0209,-6.498 1.0667,-0.5709 3.3873,-3.5686 5.1569,-6.6616 1.7697,-3.0929 4.5248,-6.7883 6.1227,-8.212 1.5978,-1.4237 3.8537,-4.1832 5.0131,-6.1323 1.1595,-1.9492 3.7675,-5.3439 5.7957,-7.5439 2.0282,-2.2 4.8907,-6.1168 6.3612,-8.7039 1.4705,-2.5871 3.5024,-5.2871 4.5152,-6 1.0128,-0.7129 3.4316,-3.7711 5.375,-6.7961 1.9434,-3.025 4.736,-6.6173 6.2058,-7.9829 1.4697,-1.3657 3.6316,-4.0657 4.8043,-6 1.1726,-1.9344 3.957,-5.395 6.1876,-7.6902 9.2143,-9.4814 13.1974,-14.0396 15.7601,-18.0358 1.4876,-2.3196 3.6451,-4.7966 4.7946,-5.5043 1.1494,-0.7077 3.4179,-3.3482 5.0411,-5.8677 1.6231,-2.5195 4.2952,-5.7784 5.9379,-7.2421 1.6427,-1.4636 4.113,-4.4454 5.4897,-6.6261 1.3766,-2.1807 3.4397,-4.4663 4.5846,-5.079 1.145,-0.6128 3.289,-2.9965 4.7646,-5.2973 1.4756,-2.3008 4.601,-6.2063 6.9453,-8.6789 17.5994,-18.5628 24.9049,-26.3242 29.9409,-31.8095 3.1882,-3.4726 8.0467,-8.6591 10.7967,-11.5257 2.75,-2.8666 9.95,-10.5329 16,-17.0364 6.05,-6.5034 14.087,-14.8168 17.8601,-18.4742 3.773,-3.6575 11.265,-10.9249 16.6488,-16.1499 44.1012,-42.8005 62.0221,-59.4173 83.9911,-77.8792 1.925,-1.6177 8.675,-7.4753 15,-13.017 14.3012,-12.5299 16.9672,-14.8391 24.6731,-21.3711 3.3953,-2.878 7.9364,-6.7394 10.0914,-8.581 2.155,-1.8416 5.3124,-4.231 7.0164,-5.3099 2.1324,-1.3502 3.6043,-3.4853 4.7217,-6.8496 1.7567,-5.2889 1.4113,-6.7314 -2.9012,-12.1162 -1.1558,-1.4432 -2.8872,-3.9182 -3.8476,-5.5 -0.9604,-1.5818 -2.9854,-4.7453 -4.5,-7.03 -1.5146,-2.2848 -5.0038,-7.5483 -7.7538,-11.6968 -2.75,-4.1484 -7.3687,-11.2791 -10.2638,-15.8459 -5.671,-8.9456 -8.1876,-12.8162 -12.49,-19.2105 -1.5146,-2.251 -3.5396,-5.3824 -4.5,-6.9585 -0.9604,-1.5761 -3.2087,-4.6562 -4.9962,-6.8446 -1.7875,-2.1884 -3.25,-4.5265 -3.25,-5.1958 0,-0.6692 -0.8522,-2.1315 -1.8937,-3.2494 -1.0415,-1.118 -2.6798,-3.5653 -3.6407,-5.4386 -0.9608,-1.8732 -2.6962,-4.5867 -3.8563,-6.0299 -1.1601,-1.4432 -2.8951,-3.9182 -3.8555,-5.5 -0.9604,-1.5818 -3.0996,-4.901 -4.7538,-7.376 -1.6542,-2.475 -3.7934,-5.7805 -4.7538,-7.3455 -0.9604,-1.5651 -2.9837,-4.4395 -4.4962,-6.3875 -1.5125,-1.9481 -2.75,-4.0854 -2.75,-4.7495 0,-0.6641 -0.8348,-1.963 -1.855,-2.8863 -1.0203,-0.9233 -2.8855,-3.6823 -4.145,-6.1312 -1.2595,-2.4489 -3.1247,-5.2079 -4.145,-6.1312 -1.0202,-0.9233 -1.855,-2.1885 -1.855,-2.8116 0,-0.623 -1.3317,-2.6908 -2.9594,-4.595 -1.6276,-1.9042 -2.9776,-3.9292 -3,-4.5 -0.022,-0.5708 -1.3723,-2.5958 -3,-4.5 -1.6276,-1.9042 -2.9776,-3.9628 -3,-4.5747 -0.022,-0.6119 -1.2781,-2.7064 -2.7906,-4.6545 -1.5125,-1.948 -3.65,-5.0127 -4.75,-6.8102 -1.8256,-2.9833 -4.0728,-6.5211 -10.1809,-16.0283 -1.1995,-1.867 -3.1258,-4.7445 -4.2806,-6.3945 -5.846,-8.3528 -7.1162,-10.2872 -8.9841,-13.6822 -1.1142,-2.0251 -2.4887,-3.9682 -3.0544,-4.3178 -0.5657,-0.3496 -1.9826,-2.5177 -3.1486,-4.8178 -1.166,-2.3002 -2.4358,-4.4072 -2.8218,-4.6822 -0.7984,-0.5689 -7.7666,-11.2239 -9.8098,-15 -0.7439,-1.375 -2.2228,-3.429 -3.2862,-4.5645 -1.0635,-1.1354 -1.9336,-2.4118 -1.9336,-2.8365 0,-0.4246 -1.2832,-2.6456 -2.8516,-4.9355 -1.5684,-2.2899 -3.7059,-5.457 -4.75,-7.0378 -1.0441,-1.5809 -3.0234,-4.5625 -4.3984,-6.6257 -4.5157,-6.776 -6.2312,-9.3886 -12.4756,-19 -3.3946,-5.225 -7.0388,-10.7935 -8.0982,-12.3743 -1.0594,-1.5809 -3.0512,-4.5625 -4.4262,-6.6257 -1.375,-2.0632 -3.3731,-5.0448 -4.4403,-6.6257 -5.0792,-7.5242 -13.1742,-20.133 -14.3647,-22.3743 -0.7303,-1.375 -2.198,-3.429 -3.2614,-4.5645 -1.0635,-1.1354 -1.9336,-2.5024 -1.9336,-3.0377 0,-0.5354 -1.3317,-2.5314 -2.9594,-4.4356 -1.6276,-1.9042 -2.9776,-3.9292 -3,-4.5 -0.022,-0.5708 -1.3723,-2.5958 -3,-4.5 -1.6276,-1.9042 -2.9776,-3.9222 -3,-4.4844 -0.022,-0.5621 -1.3215,-2.5871 -2.8871,-4.5 -1.5656,-1.9128 -3.4334,-4.6028 -4.1506,-5.9778 -1.2172,-2.3335 -9.1728,-14.8713 -13.5626,-21.3743 -5.1741,-7.665 -7.113,-10.581 -9.1212,-13.7185 -1.1995,-1.874 -3.1244,-4.7572 -4.2775,-6.4072 -3.5807,-5.1238 -12.4024,-18.5055 -15.4033,-23.3655 -1.5739,-2.549 -3.1986,-4.8595 -3.6104,-5.1345 -0.4119,-0.275 -1.5499,-2.075 -2.5291,-4 -0.9791,-1.925 -2.8419,-4.772 -4.1395,-6.3267 -1.2976,-1.5547 -2.3593,-3.3888 -2.3593,-4.0757 0,-0.6869 -1.125,-2.3059 -2.5,-3.5976 -1.375,-1.2917 -2.5,-2.8177 -2.5,-3.3909 0,-0.9884 -4.731,-8.353 -19,-29.5762 -1.375,-2.0452 -3.4814,-5.2517 -4.6809,-7.1257 -1.1995,-1.874 -3.1259,-4.7572 -4.2809,-6.4072 -1.1549,-1.65 -4.0886,-6.15 -6.5193,-10 -2.4307,-3.85 -5.3729,-8.35 -6.5383,-10 -1.1653,-1.65 -3.1002,-4.5332 -4.2997,-6.4072 -1.1995,-1.874 -3.4201,-5.249 -4.9347,-7.5 -1.5146,-2.251 -3.5396,-5.3733 -4.5,-6.9383 -0.9604,-1.5651 -2.9837,-4.4395 -4.4962,-6.3875 -1.5125,-1.9481 -2.765,-4.0426 -2.7833,-4.6545 -0.056,-1.8749 -3.6174,-5.5292 -6.4311,-6.599 -4.3424,-1.651 -6.9949,-1.1878 -11.3769,1.9865 -2.2778,1.65 -4.422,3 -4.765,3 -0.669,0 -19.2425,9.1612 -23.3937,11.5387 -1.375,0.7875 -3.3054,1.4385 -4.2898,1.4466 -0.9844,0.01 -3.4804,0.8771 -5.5466,1.9312 -2.0661,1.0541 -5.5357,2.2138 -7.7101,2.5772 -2.1744,0.3633 -5.9969,1.4979 -8.4943,2.5213 -2.4975,1.0233 -6.9975,2.1776 -10,2.5649 -3.0026,0.3874 -6.5842,1.1432 -7.9592,1.6796 -3.4949,1.3633 -21.486,2.9966 -34,3.0866 -15.9452,0.1147 -35.0584,-1.9126 -49.5,-5.2503 -18.9907,-4.389 -45.0109,-13.368 -49.7307,-17.161 -2.1221,-1.7053 -6.8758,-4.4663 -10.5638,-6.1355 -3.688,-1.6692 -8.3727,-4.5374 -10.4104,-6.3738 -2.0378,-1.8364 -5.4128,-4.2172 -7.5,-5.2906 -2.0873,-1.0735 -5.1451,-3.4 -6.7951,-5.17 -1.65,-1.7701 -4.2055,-3.9694 -5.6789,-4.8875 -3.7716,-2.35 -16.6445,-15.044 -20.8211,-20.5318 -4.153,-5.4568 -9.7236,-12.2686 -16.25,-19.8707 -2.6125,-3.0432 -4.7544,-5.9024 -4.7597,-6.3539 -0.01,-0.4516 -1.4678,-2.6911 -3.25,-4.9769 -1.7822,-2.2857 -4.1403,-5.6484 -5.2403,-7.4726 -3.8504,-6.3854 -6.0387,-9.8122 -10.896,-17.063 -11.7013,-17.4669 -22.1793,-33.178 -23.104,-34.6429 -3.4197,-5.4174 -7.7541,-12.0861 -9.5321,-14.6656 -1.1372,-1.65 -4.2725,-6.4135 -6.9673,-10.5857 -2.6948,-4.1721 -5.5973,-8.1647 -6.4501,-8.8724 -0.8528,-0.7077 -1.5505,-1.7374 -1.5505,-2.2883 0,-1.176 -6.4048,-11.2108 -14.5227,-22.7536 -1.3538,-1.925 -3.1442,-4.85 -3.9786,-6.5 -0.8343,-1.65 -3.3099,-5.475 -5.5013,-8.5 -2.1913,-3.025 -4.7747,-6.7728 -5.7408,-8.3285 -0.9661,-1.5557 -3.1948,-5.1557 -4.9526,-8 -1.7578,-2.8443 -4.1341,-6.5215 -5.2806,-8.1715 -1.1465,-1.65 -3.1778,-4.575 -4.5139,-6.5 -1.3361,-1.925 -3.2994,-5.075 -4.3629,-7 -1.0636,-1.925 -2.8817,-4.3572 -4.0402,-5.405 -1.1585,-1.0477 -2.1075,-2.3977 -2.1088,-3 0,-0.9829 -4.315,-7.8964 -10.0406,-16.095 -1.1523,-1.65 -3.0766,-4.5332 -4.2761,-6.4072 -1.9889,-3.1073 -3.1633,-4.8747 -9.1154,-13.7185 -9.1708,-13.6261 -11.3838,-17.021 -13.5773,-20.8294 -1.3814,-2.3985 -3.2939,-5.2253 -4.25,-6.2817 -0.956,-1.0564 -1.7382,-2.3522 -1.7382,-2.8797 0,-0.5275 -1.3317,-2.5171 -2.9594,-4.4213 -1.6276,-1.9042 -2.9776,-3.8105 -3,-4.2363 -0.036,-0.6932 -3.1057,-5.5161 -9.0536,-14.2259 -1.1268,-1.65 -4.0374,-6.15 -6.4681,-10 -2.4307,-3.85 -5.3556,-8.35 -6.4998,-10 -1.1442,-1.65 -3.1735,-4.575 -4.5096,-6.5 -1.3361,-1.925 -3.2994,-5.075 -4.3629,-7 -1.0636,-1.925 -2.8817,-4.3572 -4.0402,-5.405 -1.1585,-1.0477 -2.1064,-2.4378 -2.1064,-3.089 0,-0.6511 -1.1412,-2.7189 -2.536,-4.595 -1.3948,-1.876 -4.8468,-7.011 -7.6711,-11.411 -2.8244,-4.4 -5.4477,-8.225 -5.8297,-8.5 -0.382,-0.275 -1.6486,-2.382 -2.8146,-4.6822 -1.166,-2.3001 -2.5833,-4.4684 -3.1495,-4.8183 -0.5662,-0.35 -1.6955,-2.068 -2.5095,-3.8179 -0.8141,-1.7499 -3.4603,-5.8816 -5.8804,-9.1816 -2.4202,-3.3 -6.4573,-9.4001 -8.9714,-13.5557 -2.5142,-4.1556 -5.7106,-8.8806 -7.1033,-10.5 -1.3926,-1.6194 -2.5326,-3.4113 -2.5333,-3.9821 -7e-4,-0.5708 -1.3329,-2.5958 -2.9606,-4.5 -1.6276,-1.9042 -2.9776,-3.9292 -3,-4.5 -0.022,-0.5708 -1.3723,-2.5958 -3,-4.5 -1.6276,-1.9042 -2.9776,-3.9902 -3,-4.6355 -0.022,-0.6453 -1.1023,-2.4453 -2.3999,-4 -1.2976,-1.5547 -3.1168,-4.1767 -4.0425,-5.8267 -0.9258,-1.65 -2.7753,-4.575 -4.1101,-6.5 -5.4769,-7.8987 -6.7403,-9.8036 -10.9431,-16.5 -2.4163,-3.85 -5.3275,-8.1962 -6.4692,-9.6582 -1.1417,-1.4619 -2.0802,-3.0369 -2.0855,-3.5 -0.01,-0.463 -1.4678,-2.7119 -3.25,-4.9977 -1.7822,-2.2857 -4.0261,-5.4357 -4.9865,-7 -0.9604,-1.5642 -2.9854,-4.6859 -4.5,-6.9369 -3.5572,-5.2868 -6.2616,-9.4776 -8.7538,-13.5651 -1.1,-1.8042 -2.9047,-4.6442 -4.0105,-6.3112 -1.1058,-1.667 -2.9058,-4.5599 -4,-6.4286 -1.0942,-1.8688 -3.227,-4.8532 -4.7395,-6.632 -1.5125,-1.7789 -2.75,-3.6948 -2.75,-4.2577 0,-0.5629 -1.575,-2.9085 -3.5,-5.2126 -1.925,-2.3041 -3.5,-4.638 -3.5,-5.1865 0,-0.5484 -0.9254,-2.1934 -2.0563,-3.6553 -1.131,-1.462 -4.0337,-5.8082 -6.4503,-9.6582 -2.4167,-3.85 -5.3474,-8.35 -6.5128,-10 -1.1653,-1.65 -3.1002,-4.5332 -4.2997,-6.4072 -1.1995,-1.874 -3.4201,-5.249 -4.9347,-7.5 -1.5146,-2.251 -3.5396,-5.3805 -4.5,-6.9543 -0.9604,-1.5739 -3.9962,-6.2161 -6.7462,-10.3162 -6.4897,-9.6757 -9.4996,-14.2261 -12.1809,-18.4151 -1.1995,-1.874 -3.1258,-4.7572 -4.2806,-6.4072 -1.1548,-1.65 -3.1994,-4.575 -4.5436,-6.5 -1.3441,-1.925 -2.86,-4.4226 -3.3687,-5.5502 -0.5086,-1.1277 -6.5813,-10.5777 -13.4948,-21 -12.2083,-18.4046 -14.0019,-21.0731 -19.1219,-28.4498 -1.3361,-1.925 -3.3125,-5.075 -4.3921,-7 -1.0796,-1.925 -2.6742,-4.4 -3.5437,-5.5 -1.8381,-2.3257 -8.9529,-13.345 -12.5737,-19.4741 -1.375,-2.3276 -3.6769,-5.6481 -5.1154,-7.3789 -1.4385,-1.7309 -3.563,-4.947 -4.7211,-7.147 -1.1581,-2.2 -3.9053,-6.475 -6.105,-9.5 -2.1996,-3.025 -4.7195,-6.9216 -5.5997,-8.6591 -0.8802,-1.7375 -2.4685,-3.9447 -3.5296,-4.905 -1.0611,-0.9602 -1.9292,-2.2556 -1.9292,-2.8787 0,-0.623 -1.3317,-2.6908 -2.9594,-4.595 -1.6276,-1.9042 -2.9776,-3.9628 -3,-4.5747 -0.022,-0.6119 -1.2781,-2.7064 -2.7906,-4.6545 -1.5125,-1.948 -3.5348,-4.8224 -4.4939,-6.3875 -5.5778,-9.1013 -8.0632,-12.9014 -8.7282,-13.3455 -0.4119,-0.275 -1.5499,-2.075 -2.5291,-4 -0.9791,-1.925 -2.7294,-4.6808 -3.8895,-6.124 -1.1601,-1.4432 -2.8951,-3.9182 -3.8555,-5.5 -0.9604,-1.5818 -2.9854,-4.7178 -4.5,-6.9688 -1.5146,-2.251 -3.7352,-5.626 -4.9347,-7.5 -1.1995,-1.874 -3.1201,-4.7572 -4.2679,-6.4072 -5.3502,-7.691 -9.0512,-13.5234 -9.0512,-14.2637 0,-0.4465 -1.3317,-2.3699 -2.9594,-4.2741 -1.6276,-1.9042 -2.9776,-3.9292 -3,-4.5 -0.022,-0.5708 -1.3723,-2.5958 -3,-4.5 -1.6276,-1.9042 -2.9776,-4.009 -3,-4.6774 -0.022,-0.6684 -1.296,-2.6934 -2.8304,-4.5 -1.5345,-1.8066 -3.3441,-4.4098 -4.0215,-5.7848 -0.6773,-1.375 -2.3331,-4.075 -3.6795,-6 -4.9831,-7.1246 -6.6709,-9.6585 -10.9903,-16.5 -2.4307,-3.85 -5.3729,-8.35 -6.5383,-10 -1.1653,-1.65 -3.1002,-4.5332 -4.2997,-6.4072 -1.1995,-1.874 -3.4201,-5.249 -4.9347,-7.5 -1.5146,-2.251 -3.5396,-5.387 -4.5,-6.9688 -0.9604,-1.5818 -2.6972,-4.0568 -3.8595,-5.5 -1.1624,-1.4432 -3.042,-4.4541 -4.177,-6.6909 -1.1349,-2.2368 -2.7714,-4.6544 -3.6366,-5.3724 -0.8652,-0.7181 -1.5731,-1.83 -1.5731,-2.4709 0,-0.641 -1.3317,-2.7234 -2.9594,-4.6276 -1.6276,-1.9042 -2.9776,-3.9292 -3,-4.5 -0.022,-0.5708 -1.3723,-2.5958 -3,-4.5 -1.6276,-1.9042 -2.9776,-3.9292 -3,-4.5 -0.022,-0.5708 -1.3723,-2.5958 -3,-4.5 -1.6276,-1.9042 -2.9776,-4.009 -3,-4.6774 -0.022,-0.6684 -1.3906,-2.7528 -3.0406,-4.632 -1.65,-1.8793 -3,-3.7924 -3,-4.2514 0,-0.7983 -5.316,-9.0153 -19,-29.3685 -1.375,-2.0452 -3.4814,-5.2517 -4.6809,-7.1257 -1.1995,-1.874 -3.1259,-4.7572 -4.2809,-6.4072 -1.1549,-1.65 -4.0886,-6.15 -6.5193,-10 -2.4307,-3.85 -5.3556,-8.35 -6.4998,-10 -1.1442,-1.65 -3.1735,-4.575 -4.5096,-6.5 -1.3361,-1.925 -3.3144,-5.1051 -4.3963,-7.0669 -1.0819,-1.9618 -2.6749,-4.1544 -3.5401,-4.8724 -0.8652,-0.7181 -1.5731,-1.853 -1.5731,-2.5221 0,-0.6691 -1.1389,-2.7515 -2.5308,-4.6276 -2.5723,-3.4668 -19.3186,-28.5613 -22.9692,-34.4195 -3.3058,-5.3049 -6.2422,-9.8196 -8.4497,-12.9915 -1.1484,-1.65 -3.7975,-5.7 -5.887,-9 -2.0896,-3.3 -4.6686,-7.2935 -5.7312,-8.8743 -1.0627,-1.5809 -3.0571,-4.5477 -4.4321,-6.5928 -1.375,-2.0452 -3.4814,-5.2517 -4.6809,-7.1257 -1.1995,-1.874 -3.1284,-4.7572 -4.2863,-6.4072 -3.6281,-5.1699 -15.0328,-22.7329 -15.0328,-23.1502 0,-0.4923 -6.2176,-9.8714 -13.4905,-20.3498 -1.3361,-1.925 -3.3409,-5.157 -4.4551,-7.1822 -1.1142,-2.0251 -2.4887,-3.9682 -3.0544,-4.3178 -0.5657,-0.3496 -1.9073,-2.3582 -2.9814,-4.4635 -1.074,-2.1053 -2.5842,-4.4593 -3.356,-5.2311 -0.7718,-0.7717 -2.1999,-2.9562 -3.1736,-4.8543 -0.9737,-1.8981 -2.7196,-4.6319 -3.8797,-6.0751 -1.1601,-1.4432 -2.8951,-3.9182 -3.8555,-5.5 -0.9604,-1.5818 -2.9854,-4.7178 -4.5,-6.9688 -1.5146,-2.251 -3.7352,-5.626 -4.9347,-7.5 -1.1995,-1.874 -3.1201,-4.7572 -4.2679,-6.4072 -5.3502,-7.691 -9.0512,-13.5234 -9.0512,-14.2637 0,-0.4465 -1.3317,-2.3699 -2.9594,-4.2741 -1.6276,-1.9042 -2.9776,-3.9292 -3,-4.5 -0.022,-0.5708 -1.3723,-2.5958 -3,-4.5 -1.6276,-1.9042 -2.9776,-4.009 -3,-4.6774 -0.022,-0.6684 -1.3147,-2.6934 -2.8719,-4.5 -1.5572,-1.8066 -3.1354,-4.1175 -3.5072,-5.1353 -0.3717,-1.0178 -1.6047,-3.0428 -2.74,-4.5 -1.1353,-1.4572 -5.3867,-7.8245 -9.4475,-14.1495 -4.0609,-6.325 -8.3349,-12.85 -9.4978,-14.5 -1.1629,-1.65 -3.0958,-4.5332 -4.2953,-6.4072 -1.1995,-1.874 -3.4201,-5.249 -4.9347,-7.5 -1.5146,-2.251 -3.5396,-5.387 -4.5,-6.9688 -0.9604,-1.5818 -2.6972,-4.0568 -3.8595,-5.5 -1.1624,-1.4433 -3.0929,-4.424 -4.2902,-6.624 -2.2922,-4.2122 -5.607,-9.2202 -9.0402,-13.6583 -1.131,-1.462 -2.0563,-3.1338 -2.0563,-3.7152 0,-0.5814 -1.35,-2.5946 -3,-4.4739 -1.65,-1.8792 -3,-3.9042 -3,-4.5 0,-0.5957 -1.2741,-2.5613 -2.8313,-4.3679 -1.5572,-1.8067 -3.1354,-4.1176 -3.5072,-5.1354 -0.3717,-1.0177 -1.598,-3.0427 -2.725,-4.5 -1.1271,-1.4572 -4.0265,-5.7994 -6.4431,-9.6494 -2.4167,-3.85 -5.3474,-8.35 -6.5128,-10 -1.1653,-1.65 -3.1002,-4.5333 -4.2997,-6.4073 -1.1995,-1.8739 -3.3059,-5.0805 -4.6809,-7.1256 -1.375,-2.0452 -3.368,-5.0119 -4.4289,-6.5928 -1.0608,-1.5809 -4.6928,-7.1493 -8.0711,-12.3743 -3.3783,-5.225 -7.0103,-10.8054 -8.0711,-12.4009 -1.0609,-1.5954 -2.7592,-4.2954 -3.7741,-6 -1.0149,-1.7045 -2.7024,-4.0281 -3.75,-5.1636 -1.0476,-1.13536 -1.9092,-2.48536 -1.9145,-2.99996 -0.01,-0.5145 -1.5803,-2.9114 -3.5,-5.3263 -1.9197,-2.4149 -3.4903,-4.9326 -3.4903,-5.595 0,-0.6623 -0.9371,-2.0524 -2.0826,-3.089 -1.1454,-1.0365 -2.7296,-3.2438 -3.5206,-4.9049 -0.7909,-1.6612 -3.1162,-5.5267 -5.1674,-8.59 -2.0512,-3.0634 -4.7108,-7.1134 -5.9103,-9 -1.1995,-1.8867 -3.1431,-4.7803 -4.3191,-6.4303 -1.176,-1.65 -3.1196,-4.5333 -4.3191,-6.4073 -1.1995,-1.8739 -3.4201,-5.2489 -4.9347,-7.5 -1.5146,-2.251 -3.5396,-5.3799 -4.5,-6.9531 -0.9604,-1.5731 -2.7391,-4.2731 -3.9527,-6 -1.2135,-1.7268 -2.8313,-4.4896 -3.595,-6.1396 -0.7638,-1.65 -2.1663,-3.6449 -3.1167,-4.4331 -0.9504,-0.7883 -2.6131,-3.0383 -3.695,-5 -1.0819,-1.9618 -3.0602,-5.1419 -4.3963,-7.0669 -8.9213,-12.8535 -13.4905,-19.8861 -13.4905,-20.7637 0,-0.4465 -1.3317,-2.3699 -2.9594,-4.2741 -1.6276,-1.9042 -2.9776,-3.959 -3,-4.5662 -0.022,-0.6072 -1.1716,-2.3243 -2.5539,-3.8159 -1.3823,-1.4915 -3.3744,-4.3998 -4.4269,-6.4629 -1.0525,-2.0631 -2.6215,-4.3385 -3.4867,-5.0566 -0.8652,-0.718 -1.5731,-1.8299 -1.5731,-2.4709 0,-0.6409 -1.3317,-2.7233 -2.9594,-4.6275 -1.6276,-1.9042 -2.9776,-3.9292 -3,-4.5 -0.022,-0.5708 -1.3723,-2.5958 -3,-4.5 -1.6276,-1.9042 -2.9776,-3.889 -3,-4.4106 -0.06,-1.4074 -9.2096,-14.9228 -10.7306,-15.8513 -0.7205,-0.4399 -1.3111,-1.3399 -1.3124,-2 0,-1.1879 -5.9838,-10.7252 -9.9459,-15.8585 -1.1284,-1.462 -2.0517,-3.047 -2.0517,-3.5222 0,-0.4752 -1.2721,-2.429 -2.8268,-4.3418 -1.5547,-1.9128 -3.8808,-5.3782 -5.169,-7.7008 -1.2881,-2.3227 -3.3496,-4.5727 -4.581,-5 l -2.2389,-0.777 4.3878,-21.5 c 9.2454,-45.3026 8.3562,-41.9996 11.3083,-42.0038 1.4408,0 4.1584,-1.0145 6.0392,-2.25 1.8807,-1.2354 4.3036,-2.7679 5.3842,-3.4054 1.0805,-0.6375 3.5917,-2.3406 5.5804,-3.7846 1.9887,-1.444 5.8658,-4.036 8.6158,-5.7599 4.9153,-3.0812 21.9325,-14.054 26.1527,-16.8633 1.184,-0.7882 5.459,-3.6255 9.5,-6.3051 4.041,-2.6796 8.4723,-5.7152 9.8473,-6.7457 1.375,-1.0305 4.197,-2.7896 6.2711,-3.909 3.1918,-1.7228 11.2701,-7.04 25.2788,-16.6389 1.6225,-1.1118 4.7501,-3.1372 6.9501,-4.5008 6.5704,-4.0725 24.6946,-16.0778 29.1615,-19.3164 2.2889,-1.6594 6.0704,-4.1421 8.4035,-5.5171 2.333,-1.375 9.6419,-6.1 16.2419,-10.5 6.6001,-4.4 13.3935,-8.8588 15.0966,-9.9084 1.7031,-1.0495 10.2427,-6.6745 18.9769,-12.5 15.4821,-10.3259 22.4815,-14.8321 29.6196,-19.0686 1.925,-1.1425 6.2,-4.0781 9.5,-6.5235 3.3,-2.4454 6.675,-4.7603 7.5,-5.1442 0.825,-0.3839 6.6359,-4.1084 12.9131,-8.2767 6.2772,-4.1682 12.8022,-8.4292 14.5,-9.4687 1.6978,-1.0395 5.7869,-3.7081 9.0869,-5.9303 3.3,-2.2222 9.6,-6.408 14,-9.3018 4.4,-2.8938 9.125,-6.1226 10.5,-7.175 1.375,-1.0524 4.075,-2.7233 6,-3.7131 4.1203,-2.1186 8.2394,-4.9343 12.7848,-8.7397 1.8066,-1.5125 3.7581,-2.75 4.3365,-2.75 0.5785,0 2.9253,-1.2928 5.2152,-2.8728 2.2899,-1.58 9.1135,-6.063 15.1635,-9.9621 6.05,-3.8991 12.35,-8.0196 14,-9.1566 1.65,-1.137 11.325,-7.504 21.5,-14.1489 26.4642,-17.2827 48.021,-31.4605 51.5,-33.8714 1.65,-1.1434 8.175,-5.4131 14.5,-9.4882 6.325,-4.0752 12.85,-8.3456 14.5,-9.4897 1.65,-1.1442 7.5,-4.9768 13,-8.5171 5.5,-3.5402 13.0714,-8.5869 16.8254,-11.215 3.754,-2.628 8.704,-5.886 11,-7.2398 4.1597,-2.4528 17.4725,-11.1003 23.1746,-15.0534 1.65,-1.1439 6.2075,-4.196 10.1278,-6.7824 3.9203,-2.5865 10.4453,-6.9001 14.5,-9.5859 4.0547,-2.6858 11.6472,-7.669 16.8722,-11.0738 5.225,-3.4048 10.7935,-7.0573 12.3743,-8.1167 8.7137,-5.8394 11.3967,-7.5985 14.0017,-9.1801 1.5818,-0.9604 4.0568,-2.6737 5.5,-3.8075 1.4432,-1.1337 4.7615,-3.2902 7.374,-4.7921 3.2755,-1.8831 4.75,-3.3783 4.75,-4.8165 0,-2.6449 -2.6745,-3.0681 51.5,8.1488 62.363,12.9124 58.5,11.9579 58.5,14.4552 0,1.1691 2.5875,6.1582 5.75,11.0869 6.2353,9.7177 24.892,38.1224 28.2293,42.9791 1.1338,1.65 5.4051,8.175 9.4918,14.5 4.0867,6.325 8.2374,12.625 9.2239,14 0.9864,1.375 3.8488,5.875 6.3608,10 2.512,4.125 6.237,9.75 8.2778,12.5 2.0408,2.75 4.4881,6.2728 5.4385,7.8285 4.9922,8.172 8.3305,13.4794 10.1716,16.1715 1.1285,1.65 5.1255,7.725 8.8823,13.5 15.264,23.4639 25.2074,38.662 27.1517,41.5 1.1304,1.65 6.7544,10.2 12.4977,19 5.7433,8.8 11.3813,17.35 12.5288,19 1.1475,1.65 5.4206,8.175 9.4958,14.5 4.0752,6.325 8.3425,12.85 9.4831,14.5 4.2933,6.2111 24.5939,36.8577 26.4069,39.865 2.3551,3.9063 9.3328,14.3749 10.6361,15.9571 1.233,1.4969 13.5394,20.4273 17.9929,27.6779 1.8581,3.025 4.639,6.9781 6.1797,8.7848 1.5407,1.8066 2.8013,3.7299 2.8013,4.2741 0,0.9967 3.0159,5.6909 11.7513,18.2903 2.6118,3.7671 5.3851,8.0421 6.1629,9.5 1.2441,2.332 10.0971,15.7422 16.3879,24.8237 1.2088,1.7452 3.5479,5.4825 5.1979,8.3052 1.65,2.8227 4.0389,6.5698 5.3087,8.327 1.2697,1.7572 4.5549,6.5699 7.3004,10.6949 2.7455,4.125 5.9816,8.9278 7.1914,10.6729 1.2097,1.7452 3.5495,5.4877 5.1995,8.3167 1.65,2.829 4.125,6.6854 5.5,8.5698 1.375,1.8843 3.9679,5.5668 5.762,8.1833 1.7942,2.6165 4.3702,6.3323 5.7245,8.2573 1.3543,1.925 2.9252,4.5451 3.4908,5.8224 0.5656,1.2774 5.8645,9.5457 11.7755,18.3741 5.911,8.8283 11.6049,17.4582 12.6532,19.1775 1.0483,1.7193 6.6733,10.2609 12.5,18.9814 5.8267,8.7205 11.4715,17.2705 12.544,19 1.0724,1.7295 5.3474,8.3196 9.5,14.6446 4.1525,6.325 7.7313,11.95 7.953,12.5 0.2216,0.55 2.4341,3.925 4.9166,7.5 6.0109,8.6561 7.0896,10.247 12.7996,18.8757 2.6844,4.0566 6.12,9.2316 7.6346,11.5 1.5146,2.2683 3.5396,5.4185 4.5,7.0003 0.9604,1.5818 2.6726,4.0568 3.805,5.5 1.1323,1.4432 3.034,4.3189 4.226,6.3905 1.192,2.0716 2.6302,4.3216 3.1959,5 1.1181,1.3409 6.6864,10.0029 12.0425,18.73346 1.8558,3.025 4.6348,6.9781 6.1755,8.7848 1.5407,1.8066 2.8013,3.726 2.8013,4.2654 0,0.5394 2.6423,4.9112 5.8718,9.7152 8.4055,12.5034 15.3247,22.9812 17.5678,26.6029 2.4816,4.0068 13.6704,21.0567 16.8205,25.6317 1.3255,1.925 3.5426,5.3 4.9269,7.5 2.3909,3.7995 13.5903,21.159 17.0964,26.5001 0.9027,1.375 3.4582,5.1329 5.6789,8.3508 2.2207,3.218 4.0377,6.0493 4.0377,6.2917 0,0.2424 2.8509,4.5872 6.3354,9.6553 3.4845,5.068 6.522,9.6618 6.75,10.2084 0.3725,0.8928 10.5434,16.0663 16.1992,24.1668 1.2185,1.7451 3.5654,5.4824 5.2154,8.3051 1.65,2.8227 4.0221,6.5699 5.2713,8.327 1.2492,1.7572 5.3279,7.9199 9.0638,13.6949 3.7358,5.775 7.6638,11.7935 8.7287,13.3743 1.0649,1.5809 3.0612,4.5625 4.4362,6.6257 1.375,2.0632 3.3659,5.0448 4.4242,6.6257 1.0583,1.5808 3.3523,5.1243 5.0978,7.8743 3.3044,5.2059 18.535,28.4325 43.2788,66 7.9696,12.1 17.4189,26.5 20.9983,32 6.8064,10.4583 20.2521,30.9397 41.3584,63 6.8796,10.45 16.333,24.85 21.0076,32 4.6747,7.15 11.1624,16.9911 14.4171,21.869 3.2548,4.878 6.8178,10.2959 7.9178,12.04 5.7402,9.1009 28.2258,43.4246 33.4699,51.091 2.1302,3.1141 15.293,23.1653 30.5255,46.5 17.7012,27.1167 27.1634,41.5642 29.0623,44.3743 2.1177,3.134 5.8526,8.7301 8.8441,13.2514 1.046,1.5808 4.6792,7.1493 8.0738,12.3743 3.3946,5.225 7.0388,10.7935 8.0982,12.3743 1.0594,1.5809 3.0512,4.5625 4.4262,6.6257 1.375,2.0632 3.2229,4.8198 4.1064,6.1257 0.8836,1.3058 4.4836,6.8583 8,12.3388 7.2447,11.291 23.756,36.5117 26.8649,41.0355 1.1339,1.65 6.7608,10.2 12.5041,19 5.7433,8.8 11.3813,17.35 12.5288,19 1.1475,1.65 5.4206,8.175 9.4958,14.5 4.0752,6.325 8.3394,12.85 9.4761,14.5 1.1366,1.65 6.1765,9.3 11.1996,17 15.1304,23.1935 27.3344,41.8292 29.3869,44.8743 4.458,6.614 7.5495,11.2922 9.1912,13.9086 0.9604,1.5306 9.0548,13.9056 17.9876,27.5 8.9327,13.5944 16.6822,25.3921 17.221,26.2171 9.9916,15.299 22.4258,34.1764 24.0418,36.5 1.1475,1.65 5.4206,8.175 9.4958,14.5 4.0752,6.325 8.3609,12.85 9.5238,14.5 2.2849,3.2421 5.3886,8.0669 8.3214,12.9364 1.0149,1.685 2.6379,3.9636 3.6067,5.0636 2.37,2.691 16.0481,27.791 16.0481,29.4492 0,0.7231 0.8588,2.7178 1.9085,4.4328 1.0497,1.7149 2.4256,5.0622 3.0575,7.4384 0.6319,2.3762 2.0214,5.7512 3.0878,7.5 1.0663,1.7488 1.9404,3.9653 1.9425,4.9256 0,0.9603 0.8646,4.3353 1.9169,7.5 1.0522,3.1647 2.2098,8.657 2.5724,12.205 0.3626,3.5481 1.1862,7.3731 1.8303,8.5 0.6441,1.127 1.4945,6.999 1.8899,13.049 0.3954,6.05 1.018,14.1124 1.3836,17.9165 1.164,12.1107 -3.0289,43.1957 -8.3067,61.5835 -6.502,22.6528 -9.0203,30.0214 -11.7906,34.5 -1.3609,2.2 -4.4637,8.0704 -6.8952,13.0453 -2.4314,4.9749 -5.7968,10.3905 -7.4785,12.0347 -1.6817,1.6442 -4.3573,5.366 -5.9457,8.2706 -6.5723,12.0183 -33.8272,39.0308 -49.7754,49.3326 -3.6004,2.3258 -4.1824,3.2326 -4.7548,7.4082 -0.6277,4.5799 -0.4367,5.0733 5.1027,13.1802 3.1651,4.6322 6.6699,9.9231 7.7885,11.7575 1.1185,1.8344 2.719,4.1533 3.5566,5.1531 0.8376,0.9998 2.0696,2.9428 2.7377,4.3178 0.6682,1.375 2.3164,4.075 3.6628,6 1.3464,1.925 3.3755,4.85 4.5092,6.5 1.1337,1.65 3.1544,4.575 4.4905,6.5 1.3361,1.925 3.3125,5.075 4.3921,7 1.0796,1.925 2.6742,4.4 3.5437,5.5 0.8694,1.1 3.5818,5.15 6.0275,9 2.4457,3.85 5.4002,8.35 6.5656,10 1.1653,1.65 3.1002,4.5332 4.2997,6.4072 1.1995,1.874 3.4201,5.249 4.9347,7.5 1.5146,2.251 3.5396,5.3705 4.5,6.9322 0.9604,1.5616 3.9962,6.2507 6.7462,10.4202 2.75,4.1694 5.8303,8.9667 6.8452,10.6606 1.0149,1.6939 2.7024,4.0088 3.75,5.1443 1.0476,1.1354 1.9048,2.5024 1.9048,3.0377 0,0.5354 1.3317,2.5314 2.9594,4.4356 1.6276,1.9042 2.9776,4.009 3,4.6774 0.022,0.6684 1.296,2.6934 2.8304,4.5 1.5345,1.8066 3.3441,4.4098 4.0215,5.7848 0.6773,1.375 2.2344,3.9129 3.4601,5.6397 1.2257,1.7268 3.1286,4.6367 4.2286,6.4665 4.4133,7.3411 5.8206,9.4901 7.8652,12.0103 1.1741,1.4473 2.9206,3.9257 3.881,5.5075 0.9604,1.5818 3.0996,4.901 4.7538,7.376 1.6542,2.475 3.7934,5.7777 4.7538,7.3394 1.6639,2.7055 8.5806,13.2254 14.5,22.0536 1.5146,2.2588 3.5396,5.4012 4.5,6.983 0.9604,1.5818 2.7587,4.1218 3.9962,5.6444 1.2375,1.5226 2.25,3.1495 2.25,3.6153 0,0.4658 1.4983,3.1009 3.3295,5.8556 1.8311,2.7548 4.0758,6.1337 4.9881,7.5087 0.9123,1.375 4.7015,6.9607 8.4205,12.4127 6.7267,9.8612 8.9452,13.2572 12.7619,19.5361 3.8523,6.3374 10.726,16.5558 11.47,17.0512 0.413,0.275 1.552,2.075 2.5312,4 0.9791,1.925 2.7294,4.6808 3.8895,6.124 1.1601,1.4432 2.8951,3.9182 3.8555,5.5 0.9604,1.5818 2.9854,4.7178 4.5,6.9688 1.5146,2.251 3.7352,5.626 4.9347,7.5 1.1995,1.874 3.1201,4.7572 4.2679,6.4072 5.3502,7.691 9.0512,13.5234 9.0512,14.2637 0,0.4465 1.3317,2.3699 2.9594,4.2741 1.6276,1.9042 2.9776,3.9292 3,4.5 0.022,0.5708 1.3723,2.5958 3,4.5 1.6276,1.9042 2.9776,4.009 3,4.6774 0.022,0.6684 1.296,2.6934 2.8304,4.5 1.5345,1.8066 3.3441,4.4098 4.0215,5.7848 0.6773,1.375 2.3331,4.075 3.6795,6 4.9831,7.1246 6.6709,9.6585 10.9903,16.5 2.4307,3.85 5.3729,8.35 6.5383,10 1.1653,1.65 3.1002,4.5332 4.2997,6.4072 1.1995,1.874 3.3059,5.0657 4.6809,7.0928 1.375,2.0271 3.4814,5.2188 4.6809,7.0928 1.1995,1.874 3.1183,4.7572 4.264,6.4072 4.4167,6.3608 9.0551,13.7311 9.0551,14.3883 0,0.378 1.3317,2.2453 2.9594,4.1495 1.6276,1.9042 2.9776,3.9292 3,4.5 0.022,0.5708 1.3723,2.5958 3,4.5 1.6276,1.9042 2.9776,3.9572 3,4.5622 0.022,0.6049 1.3906,2.9635 3.0406,5.2413 1.65,2.2778 3,4.4998 3,4.9378 0,0.4381 1.3317,2.3545 2.9594,4.2587 1.6276,1.9042 2.9776,3.8267 3,4.2722 0.022,0.4455 1.5031,2.7644 3.2906,5.153 1.7875,2.3887 4.0358,5.6242 4.9962,7.19 0.9604,1.5659 2.9854,4.6888 4.5,6.9398 1.5146,2.251 3.7352,5.626 4.9347,7.5 1.1995,1.874 3.1258,4.7572 4.2806,6.4072 4.6785,6.6846 7.0429,10.2549 10.2125,15.4213 1.8293,2.9817 4.226,6.8424 5.326,8.5793 1.1,1.7369 2.9,4.6513 4,6.4764 1.1,1.8252 3.1768,4.7145 4.6151,6.4207 1.4383,1.7063 2.9008,4.0192 3.2499,5.1399 0.3492,1.1206 2.8687,4.2377 5.5989,6.9269 5.2522,5.1731 5.2333,5.1703 11.0361,1.6366 1.4774,-0.8997 6.2375,-3.1136 23,-10.6968 4.675,-2.115 9.2123,-4.4228 10.0829,-5.1286 0.8706,-0.7058 3.6552,-1.9893 6.188,-2.8524 2.5329,-0.863 5.1382,-2.2113 5.7896,-2.9962 0.6514,-0.7849 1.6582,-1.4271 2.2374,-1.4271 0.986,0 8.1169,-3.239 22.2021,-10.0847 3.3,-1.6038 6.5074,-2.9159 7.1276,-2.9157 0.6201,2e-4 1.6865,-0.6732 2.3698,-1.4964 0.6832,-0.8233 3.3258,-2.1383 5.8724,-2.9222 2.5466,-0.7839 6.4128,-2.3603 8.5916,-3.5031 2.1788,-1.1429 4.8788,-2.0802 6,-2.083 1.1212,0 3.8386,-1.1138 6.0386,-2.4688 2.2,-1.355 4.6184,-2.4777 5.3741,-2.4949 1.4679,-0.033 13.4361,-5.1671 31.1259,-13.3516 3.025,-1.3995 6.85,-2.8637 8.5,-3.2538 1.65,-0.39 4.8395,-1.7704 7.0879,-3.0674 2.2483,-1.2971 4.7299,-2.3584 5.5148,-2.3584 0.7848,0 3.0819,-0.887 5.1046,-1.9711 2.0227,-1.0841 5.8411,-2.508 8.4852,-3.1642 2.6441,-0.6562 5.7535,-1.8024 6.9098,-2.5471 1.1562,-0.7447 4.3062,-1.9931 7,-2.7743 8.4354,-2.4461 19.7509,-6.5452 21.8674,-7.9214 1.1167,-0.7261 3.7167,-1.6332 5.7778,-2.0159 2.0611,-0.3826 6.1111,-1.7961 9,-3.1411 2.8889,-1.3449 6.0579,-2.4498 7.0423,-2.4551 0.9844,-0.01 3.4594,-0.8434 5.5,-1.8622 2.0406,-1.0188 5.7352,-2.3529 8.2102,-2.9647 2.475,-0.6117 6.2826,-2.0281 8.4614,-3.1476 2.1788,-1.1194 4.9467,-2.0353 6.1507,-2.0353 1.2041,0 4.5965,-1.1206 7.5386,-2.4902 2.9421,-1.3697 6.6047,-2.4947 8.1391,-2.5 1.5344,-0.01 4.4594,-0.8465 6.5,-1.8692 2.0406,-1.0227 5.5647,-2.1437 7.8314,-2.4912 2.2666,-0.3475 6.0916,-1.5259 8.5,-2.6187 2.4083,-1.0927 5.5212,-1.9967 6.9174,-2.0087 1.3962,-0.012 4.3196,-0.93 6.4964,-2.0399 2.1769,-1.1098 6.5174,-2.43 9.6457,-2.9338 3.1282,-0.5038 6.7298,-1.5862 8.0035,-2.4054 1.2737,-0.8192 4.965,-1.9701 8.203,-2.5576 3.2379,-0.5875 6.496,-1.5734 7.2402,-2.191 0.7441,-0.6176 4.5584,-1.7337 8.476,-2.4802 3.9177,-0.7464 7.652,-1.7962 8.2985,-2.3327 0.6465,-0.5365 4.2607,-1.4684 8.0316,-2.0708 3.7709,-0.6024 7.8035,-1.6081 8.9613,-2.235 1.1579,-0.6268 5.0302,-1.6946 8.6052,-2.3727 3.575,-0.6781 8.3,-1.9265 10.5,-2.7741 2.2,-0.8475 5.9304,-1.5608 8.2898,-1.5849 2.3594,-0.024 5.9594,-0.88 8,-1.9019 2.0406,-1.0218 5.8555,-2.1393 8.4774,-2.4832 2.622,-0.3439 6.0391,-1.283 7.5937,-2.0868 1.5545,-0.8039 5.2592,-1.7474 8.2327,-2.0968 2.9735,-0.3493 7.5148,-1.4991 10.0918,-2.5551 2.5769,-1.0561 6.4558,-1.9201 8.6197,-1.9201 2.1639,0 6.7516,-0.9 10.1949,-2 3.4433,-1.1 8.6993,-2 11.6799,-2 2.9807,0 6.7346,-0.6801 8.342,-1.5113 1.6075,-0.8313 6.6677,-1.891 11.245,-2.3549 4.5773,-0.464 9.2369,-1.3331 10.3547,-1.9313 1.1179,-0.5982 4.4728,-1.3686 7.4554,-1.7119 2.9827,-0.3433 7.2785,-1.2846 9.5464,-2.0918 2.2679,-0.8071 7.4754,-1.8434 11.5723,-2.3029 4.0969,-0.4594 8.4436,-1.3677 9.6593,-2.0183 1.2158,-0.6507 6.3582,-1.5539 11.4277,-2.0072 5.0695,-0.4533 10.4841,-1.3296 12.0324,-1.9473 1.5483,-0.6177 6.3565,-1.1231 10.6849,-1.1231 4.3284,0 9.1366,-0.5031 10.6849,-1.1179 1.5483,-0.6148 6.7551,-1.5003 11.5706,-1.9678 4.8155,-0.4674 9.6492,-1.3281 10.7415,-1.9127 1.0923,-0.5846 5.7024,-1.3209 10.2445,-1.6363 4.5422,-0.3154 10.4777,-1.2016 13.19,-1.9694 2.7123,-0.7677 8.4205,-1.3959 12.6849,-1.3959 4.2644,0 9.0202,-0.4959 10.5685,-1.102 1.5483,-0.6061 7.3821,-1.0639 12.964,-1.0174 6.3075,0.053 11.985,-0.4725 15,-1.3872 2.6681,-0.8095 8.2291,-1.4766 12.3577,-1.4826 4.1286,-0.01 9.0786,-0.5073 11,-1.1142 4.2946,-1.3565 18.4619,-2.4942 73.4934,-5.902 28.8115,-1.7842 58.119,-2.7004 71,-2.2195 3.85,0.1437 27.925,0.056 53.5,-0.1954 37.3712,-0.3671 49.3466,-0.1548 61,1.0813 8.8491,0.9387 18.0075,1.3045 23.5,0.9387 4.95,-0.3296 12.825,-0.1474 17.5,0.405 4.675,0.5524 17.6553,1.4311 28.8452,1.9528 11.1898,0.5217 22.2148,1.1964 24.5,1.4993 2.2851,0.3029 12.3487,1.6741 22.3634,3.047 10.0148,1.3729 22.07,2.4962 26.7894,2.4962 11.5678,0 23.5069,1.405 52.002,6.1196 22.9096,3.7905 49.372,7.7947 65.4748,9.9076 4.1111,0.5394 8.2505,1.2269 9.1986,1.5278 0.9481,0.3009 9.2844,1.8473 18.5252,3.4364 34.2638,5.8922 40.2221,6.9951 59.1406,10.9467 16.9623,3.5431 26.8224,5.9402 51.6608,12.5592 3.3,0.8794 14.775,3.8543 25.5,6.6109 72.3809,18.6039 78.6695,20.3602 103.5,28.9051 7.7,2.6498 21.2,6.9137 30,9.4753 8.8,2.5616 21.175,6.8394 27.5,9.5063 6.325,2.6669 19.15,7.174 28.5,10.0158 9.35,2.8418 21.5,7.3364 27,9.988 5.5,2.6517 15.2125,6.4288 21.5834,8.3937 6.3709,1.9648 15.5464,5.5946 20.3901,8.0661 4.8436,2.4715 14.4811,6.2853 21.4165,8.475 6.9355,2.1898 15.31,5.6184 18.61,7.6192 3.3,2.0008 10.4527,5.3712 15.8949,7.4898 5.4422,2.1187 12.4172,5.4015 15.5,7.2953 3.0828,1.8937 11.0051,5.3417 17.6051,7.6622 6.6,2.3205 14.475,5.7352 17.5,7.5881 3.025,1.853 9.8886,5.1247 15.2524,7.2704 5.3638,2.1457 12.1138,5.5166 15,7.491 2.8862,1.9744 8.3976,4.7664 12.2476,6.2044 3.85,1.4381 9.475,4.2931 12.5,6.3443 3.025,2.0513 9.3953,5.3518 14.1562,7.3346 4.7609,1.9827 10.9333,5.1714 13.7165,7.0859 2.7832,1.9145 8.2016,4.6812 12.0409,6.1483 3.8392,1.467 8.6918,4.0335 10.7834,5.7031 2.0917,1.6697 6.953,4.6266 10.803,6.5711 3.85,1.9444 8.8357,5.0393 11.0792,6.8776 2.2436,1.8382 7.1936,4.5118 11,5.9413 3.8065,1.4295 9.1708,4.3178 11.9208,6.4186 2.75,2.1007 8.0679,5.2004 11.8175,6.8883 3.7496,1.6878 8.2496,4.2777 10,5.7554 1.7504,1.4777 6.7825,4.3537 11.1825,6.3911 4.4,2.0374 8.9,4.7171 10,5.9548 1.1,1.2377 4.6008,3.5644 7.7796,5.1704 3.1788,1.606 7.5046,4.4784 9.613,6.3832 2.1084,1.9049 6.4826,4.6621 9.7204,6.1272 3.2379,1.4651 7.6307,4.2181 9.762,6.1177 2.1312,1.8996 6.2788,4.5169 9.217,5.8163 2.9381,1.2994 7.0444,3.8914 9.125,5.7601 2.0807,1.8687 6.258,4.6392 9.283,6.1568 3.025,1.5176 7.1672,4.2564 9.2049,6.0863 2.0378,1.8299 5.4128,4.2054 7.5,5.2788 2.0873,1.0735 5.1451,3.3824 6.7951,5.131 1.65,1.7487 5.9853,4.9292 9.6339,7.068 3.6487,2.1387 6.891,4.5584 7.2051,5.377 0.3142,0.8187 3.6289,3.0338 7.3661,4.9225 3.7372,1.8887 7.9199,4.6458 9.2949,6.1268 1.375,1.4811 4.975,4.1547 8,5.9414 3.025,1.7866 6.9477,4.6121 8.717,6.2787 1.7694,1.6667 4.8748,3.817 6.901,4.7785 2.0261,0.9614 5.5285,3.4191 7.783,5.4614 2.2544,2.0423 6.2198,5.149 8.8119,6.9039 2.5921,1.7549 5.0671,3.7891 5.5,4.5205 0.4329,0.7313 3.8246,3.2365 7.5371,5.5671 3.7125,2.3305 6.75,4.6561 6.75,5.1679 0,0.5118 3.0375,2.9081 6.75,5.325 3.7125,2.417 7.3097,5.3224 7.9938,6.4564 0.6841,1.134 3.0311,2.9736 5.2155,4.088 2.1844,1.1144 5.6747,3.7717 7.7562,5.905 2.0815,2.1333 5.1969,4.5927 6.9232,5.4654 1.7263,0.8726 4.6513,3.1957 6.5,5.1624 1.8487,1.9666 5.1613,4.639 7.3613,5.9386 2.2,1.2995 5.4229,3.8673 7.162,5.7061 1.7391,1.8388 6.3979,6.0433 10.3529,9.3433 3.9549,3.3 9.057,7.8233 11.338,10.0519 2.2809,2.2285 5.7221,5.1512 7.6471,6.4949 1.925,1.3437 5.3598,4.2454 7.633,6.4482 5.2407,5.0785 13.9746,12.7649 17.867,15.7242 1.65,1.2544 4.6423,3.8558 6.6495,5.7808 2.0072,1.925 6.6153,6.2 10.2402,9.5 3.6249,3.3 7.3826,6.7978 8.3505,7.773 0.9679,0.9751 5.3456,5.2501 9.7281,9.5 4.3826,4.2498 12.3341,12.002 17.67,17.227 5.3359,5.225 11.2002,10.8621 13.0317,12.5269 1.8315,1.6648 4.005,3.7806 4.83,4.7019 0.825,0.9212 8.025,8.1445 16,16.0518 7.975,7.9072 16.075,16.2461 18,18.5309 1.925,2.2848 8,8.8301 13.5,14.5452 21.7493,22.5997 33.0348,34.7124 42,45.0784 2.75,3.1797 6.6875,7.4635 8.75,9.5195 2.0625,2.056 3.75,4.0956 3.75,4.5325 0,0.4369 1.5904,2.6435 3.5343,4.9036 3.2313,3.7571 17.3547,20.0312 26.3063,30.3121 2.0127,2.3116 5.4594,6.4783 7.6594,9.2594 2.2,2.7811 5.6341,6.9648 7.6313,9.2972 6.9826,8.1542 12.3965,14.7237 15.8687,19.256 1.925,2.5127 4.8888,6.2372 6.5862,8.2766 1.6973,2.0394 3.9319,5.1705 4.9656,6.958 1.0337,1.7875 2.2083,3.25 2.6104,3.25 0.402,0 2.3594,2.3625 4.3499,5.25 4.5378,6.583 6.8023,9.6304 17.9879,24.2082 4.95,6.4511 9.9,13.1813 11,14.956 1.1,1.7747 3.0366,4.545 4.3036,6.1562 5.5788,7.0947 8.1964,10.7585 8.1964,11.4725 0,0.4223 1.575,2.653 3.5,4.9571 1.925,2.3041 3.5,4.7519 3.5,5.4396 0,0.6877 0.9479,2.1077 2.1064,3.1554 1.1585,1.0478 2.9766,3.48 4.0402,5.405 2.031,3.6761 5.0207,8.151 9.3534,14 4.3327,5.849 7.3224,10.3239 9.3534,14 1.0636,1.925 2.8817,4.3572 4.0402,5.405 1.1585,1.0477 2.1064,2.4946 2.1064,3.2152 0,0.7206 1.284,2.7884 2.8533,4.595 1.5694,1.8066 3.438,4.4098 4.1526,5.7848 0.7145,1.375 2.15,3.625 3.19,5 3.5806,4.7342 8.8041,12.9535 8.8041,13.8534 0,0.496 0.7101,1.491 1.578,2.2113 0.8679,0.7203 2.6852,3.3629 4.0385,5.8725 2.5269,4.6858 5.722,9.5594 9.3084,14.1983 1.1206,1.4495 2.4571,3.6995 2.97,5 0.5129,1.3005 2.0963,3.9144 3.5188,5.8088 1.4225,1.8943 2.5863,3.9621 2.5863,4.595 0,0.6329 0.8589,1.928 1.9086,2.878 1.0498,0.95 2.482,3.1573 3.1828,4.905 0.7008,1.7477 2.3169,4.4497 3.5914,6.0044 1.2745,1.5547 2.3254,3.3547 2.3354,4 0.01,0.6453 1.2475,3.0366 2.75,5.314 6.6631,10.0996 14.3452,23.6083 21.2013,37.2814 1.6332,3.2572 3.3986,6.1874 3.9231,6.5115 0.5244,0.3241 1.2438,1.9108 1.5985,3.526 0.3548,1.6152 1.9644,4.5969 3.577,6.6261 1.6125,2.0291 2.9319,4.2679 2.9319,4.9751 0,0.7072 1.125,2.6227 2.5,4.2568 1.375,1.6341 2.5,3.5387 2.5,4.2324 0,0.6937 1.0603,2.6537 2.3561,4.3556 1.2959,1.7019 2.7049,4.2194 3.1312,5.5944 0.4263,1.375 1.6312,3.7157 2.6775,5.2016 1.0463,1.4858 3.0408,5.0858 4.4322,8 1.3914,2.9141 4.042,7.9984 5.8902,11.2984 3.5166,6.2787 3.9477,7.1161 6.1782,12 0.7535,1.65 1.986,4.125 2.7388,5.5 0.7528,1.375 2.7219,5.425 4.376,9 1.654,3.575 6.3825,13.475 10.5079,22 6.6908,13.8265 11.0395,22.9936 16.1289,34 0.8902,1.925 2.3492,4.85 3.2424,6.5 4.0983,7.5713 6.3406,12.4065 6.3406,13.6728 0,0.758 1.3359,4.0667 2.9686,7.3527 1.6328,3.286 2.9828,6.7013 3,7.5896 0.017,0.8884 0.888,2.7042 1.935,4.0352 1.047,1.3311 2.4192,4.3346 3.0492,6.6746 0.6301,2.3399 2.2485,6.3286 3.5964,8.8637 1.348,2.5351 2.4508,5.3816 2.4508,6.3255 0,0.9439 0.8721,2.8249 1.938,4.18 1.0659,1.355 2.2657,3.7782 2.6663,5.3848 0.4006,1.6066 2.0031,5.6211 3.5612,8.9211 1.5581,3.3 2.8333,6.7268 2.8337,7.6151 4e-4,0.8884 0.8574,2.7042 1.9044,4.0352 1.047,1.3311 2.4337,4.3886 3.0815,6.7945 0.6479,2.4059 1.7796,5.3151 2.515,6.4648 0.7354,1.1497 1.8649,4.1154 2.51,6.5904 0.6451,2.475 1.9769,5.85 2.9597,7.5 0.9828,1.65 2.1042,4.7791 2.492,6.9535 0.3878,2.1744 1.5676,5.644 2.6217,7.7101 1.0541,2.0662 1.9165,4.6076 1.9165,5.6476 0,1.04 1.1004,3.9605 2.4453,6.4899 1.3449,2.5295 2.7654,6.3053 3.1566,8.3906 0.3913,2.0854 1.7659,5.7749 3.0547,8.1989 1.2889,2.424 2.3434,5.3594 2.3434,6.5231 0,1.1638 0.84,3.6843 1.8667,5.6011 1.0266,1.9169 2.1953,5.0602 2.5969,6.9852 0.4016,1.925 1.5367,4.9036 2.5224,6.6192 0.9857,1.7155 2.3102,5.5346 2.9433,8.4869 0.6332,2.9523 1.7759,6.3213 2.5394,7.4865 0.7635,1.1653 1.8477,4.3212 2.4094,7.013 0.9383,4.4977 3.6537,13.5063 6.2979,20.8944 0.5906,1.65 1.7303,5.7 2.5328,9 0.8024,3.3 2.3213,7.8493 3.3751,10.1095 1.0539,2.2603 1.9161,5.4276 1.9161,7.0386 0,1.611 0.8795,4.6541 1.9544,6.7626 1.075,2.1084 2.4455,6.1986 3.0456,9.0893 0.6001,2.8907 1.9706,6.9809 3.0456,9.0893 1.0749,2.1085 1.9643,4.9759 1.9764,6.3721 0.012,1.3962 0.8394,4.3386 1.8385,6.5386 0.9991,2.2 2.1391,6.4329 2.5332,9.4064 0.3942,2.9735 1.3647,6.6595 2.1568,8.1912 0.792,1.5316 1.9016,6.039 2.4657,10.0163 0.564,3.9773 1.4839,7.7838 2.0441,8.4588 0.5603,0.675 1.4626,4.0848 2.0052,7.5773 0.5426,3.4925 1.8749,8.4584 2.9605,11.0354 1.0857,2.5769 1.974,6.3074 1.974,8.2898 0,1.9825 0.9,5.3686 2,7.5248 1.1,2.1562 2.0198,5.6258 2.0439,7.7102 0.024,2.0844 0.7408,5.5898 1.5927,7.7898 0.8518,2.2 2.0966,7.375 2.7662,11.5 0.6696,4.125 1.6973,8.4 2.2837,9.5 0.5865,1.1 1.3871,5.0789 1.7793,8.8419 0.3922,3.7631 1.3293,8.3167 2.0824,10.1192 0.7531,1.8024 1.6745,6.3736 2.0476,10.158 0.3731,3.7845 1.2299,8.0059 1.9042,9.3809 0.6743,1.375 1.5311,5.5964 1.9042,9.3809 0.3731,3.7844 1.2945,8.3556 2.0476,10.158 0.7531,1.8025 1.6911,6.3561 2.0844,10.1192 0.3933,3.763 1.2751,7.9669 1.9595,9.3419 0.6844,1.375 1.5609,6.2366 1.9477,10.8035 0.3869,4.567 1.3454,9.84 2.13,11.7179 0.7846,1.8779 1.4266,6.6084 1.4266,10.5122 0,3.9038 0.5285,8.0808 1.1746,9.2821 0.646,1.2014 1.514,6.5416 1.9289,11.8673 0.4149,5.3256 1.2601,10.6279 1.8782,11.7827 0.618,1.1549 1.4946,6.2475 1.9479,11.317 0.4533,5.0695 1.3296,10.4841 1.9473,12.0324 0.6177,1.5483 1.1284,5.8233 1.135,9.5 0.01,3.6767 0.6762,9.1599 1.4881,12.1849 0.8119,3.025 1.4816,8.8752 1.4881,13.0004 0.01,4.1252 0.6791,10.6502 1.4945,14.5 0.8155,3.8498 1.4905,10.5167 1.5,14.8153 0.01,4.2987 0.4924,8.7033 1.073,9.7881 0.5805,1.0848 1.0555,5.3913 1.0555,9.57 0,4.1787 0.4738,9.674 1.0529,12.2119 0.579,2.5379 1.4277,10.6893 1.8858,18.1143 0.4581,7.425 1.3515,21.375 1.9853,31 0.6338,9.625 1.2227,23.35 1.3086,30.5 0.086,7.15 0.5264,13.5723 0.9787,14.2717 0.4524,0.6995 0.9398,17.6085 1.0832,37.5756 0.1435,19.9672 0.5717,36.8069 0.9516,37.4217 0.38,0.6147 0.2084,6.2057 -0.3811,12.4244 -0.7856,8.2856 -0.7658,13.5777 0.074,19.8066 0.9408,6.9771 0.8543,11.0025 -0.4828,22.4677 -1.0993,9.4262 -1.4144,17.0827 -0.9691,23.548 0.3934,5.7133 0.1653,13.799 -0.5653,20.0322 -0.6737,5.7487 -1.3644,19.0021 -1.5348,29.4521 -0.1858,11.3969 -0.954,22.8015 -1.9198,28.5 -0.8855,5.225 -2.0529,18.69 -2.5942,29.9222 -0.6317,13.11 -2.2272,29.0433 -4.4559,44.5 -5.2229,36.2227 -6.1872,48.8015 -3.4044,44.4116 2.7086,-4.273 -0.6802,13.2067 -29.5972,152.6662 -26.0971,125.8594 -28.0765,134.8963 -29.3711,134.0962 -0.4131,-0.2553 -1.273,-0.1417 -1.9108,0.2525 -1.4938,0.9232 -6.903,18.2162 -13.2379,42.3211 -5.0988,19.4015 -8.1494,28.6956 -14.3862,43.8302 -1.9266,4.675 -6.0166,17.2466 -9.089,27.9368 -3.0869,10.7408 -7.1938,22.5915 -9.1795,26.4879 -1.9764,3.878 -5.8194,13.8065 -8.5402,22.0631 -2.7207,8.2567 -6.6998,18.4815 -8.8425,22.7217 -2.1427,4.2402 -6.1076,14.3652 -8.8109,22.5 -2.7032,8.1348 -6.5593,17.7792 -8.569,21.4321 -2.0097,3.6529 -5.3868,11.4152 -7.5047,17.2496 -2.1179,5.8344 -5.4751,13.335 -7.4605,16.6679 -1.9855,3.333 -4.9247,9.7456 -6.5316,14.2504 -4.0166,11.2602 -5.3743,14.2809 -9.4679,21.0652 -1.9497,3.2311 -4.5248,8.8561 -5.7226,12.5 -2.5597,7.7869 -4.7306,12.2889 -8.917,18.4919 -1.6817,2.4919 -3.892,6.9555 -4.9116,9.9192 -2.2823,6.6337 -4.427,10.8388 -8.1474,15.9746 -1.5746,2.1737 -4.2559,7.6168 -5.9584,12.0959 -1.7025,4.479 -4.6627,10.4571 -6.5783,13.2845 -1.9155,2.8275 -5.0533,8.8646 -6.9727,13.4158 -1.9195,4.5512 -4.9923,10.3379 -6.8285,12.8592 -1.8363,2.5213 -4.9061,7.9592 -6.8218,12.0842 -1.9158,4.125 -4.8415,9.1796 -6.5016,11.2323 -1.6601,2.0528 -4.044,6.3278 -5.2975,9.5 -1.2536,3.1723 -3.9725,8.0177 -6.0422,10.7677 -2.0696,2.75 -5.3993,8.6 -7.3994,13 -2,4.4 -4.7117,9.125 -6.0259,10.5 -1.3142,1.375 -3.9509,5.928 -5.8593,10.1179 -1.9084,4.1898 -4.7996,9.1398 -6.4249,11 -1.6253,1.8601 -4.3604,6.1751 -6.078,9.5888 -1.7176,3.4137 -4.505,7.7809 -6.1943,9.7049 -1.6893,1.924 -4.3406,6.106 -5.8916,9.2933 -1.5511,3.1873 -4.0088,7.0682 -5.4615,8.6241 -1.4528,1.556 -4.0375,5.606 -5.7438,9 -1.7063,3.3941 -4.6695,7.9147 -6.5848,10.046 -1.9153,2.1312 -4.5455,6.2788 -5.8449,9.217 -1.2994,2.9381 -3.8903,7.0444 -5.7576,9.125 -1.8672,2.0807 -4.3427,5.6546 -5.5011,7.9421 -1.1583,2.2874 -3.9295,6.2659 -6.1582,8.8409 -2.2287,2.575 -4.9988,6.5535 -6.1558,8.8409 -1.157,2.2875 -3.8133,6.0269 -5.9029,8.3097 -2.0896,2.2828 -4.792,6.0966 -6.0054,8.475 -1.2134,2.3784 -3.4382,5.4753 -4.944,6.8819 -1.5058,1.4067 -3.8754,4.7929 -5.2659,7.525 -1.3904,2.7321 -3.7397,6.0925 -5.2207,7.4675 -1.4809,1.375 -4.432,5.425 -6.5579,9 -2.1259,3.575 -4.9741,7.5264 -6.3294,8.781 -1.3554,1.2545 -3.6949,4.3808 -5.1989,6.9473 -1.5041,2.5665 -4.0334,5.7592 -5.6208,7.0948 -1.5873,1.3357 -3.7798,4.1805 -4.8722,6.3217 -1.0924,2.1413 -3.3501,5.1086 -5.0172,6.594 -1.6671,1.4853 -4.5829,5.2553 -6.4796,8.3776 -1.8968,3.1224 -4.0983,5.9263 -4.8924,6.2311 -0.794,0.3047 -3.2778,3.458 -5.5194,7.0074 -2.2417,3.5494 -4.7331,6.7057 -5.5365,7.014 -0.8034,0.3083 -3.1249,3.1639 -5.1588,6.3458 -2.034,3.1819 -4.7389,6.6057 -6.0109,7.6084 -1.272,1.0028 -3.48,3.8149 -4.9066,6.2493 -1.4266,2.4344 -3.9081,5.3619 -5.5144,6.5057 -1.6063,1.1438 -3.5897,3.3737 -4.4076,4.9553 -0.8179,1.5817 -3.6236,5.1419 -6.2349,7.9116 -2.6113,2.7698 -7.2228,8.0019 -10.2478,11.627 -3.025,3.625 -7.3233,8.4668 -9.5519,10.7595 -2.2285,2.2927 -5.1512,5.7435 -6.4949,7.6685 -1.3437,1.925 -4.2454,5.3605 -6.4482,7.6344 -6.1773,6.3768 -11.6319,12.517 -14.538,16.3656 -1.4536,1.925 -6.543,7.55 -11.3097,12.5 -4.7667,4.95 -13.7272,14.3028 -19.912,20.784 -6.1849,6.4812 -15.5203,16.2148 -20.7453,21.6303 -5.225,5.4154 -10.4638,10.9126 -11.6419,12.216 -1.178,1.3033 -3.428,3.5255 -5,4.9381 -1.5719,1.4125 -4.2309,4.1125 -5.9088,6 -1.6779,1.8874 -7.6723,7.7066 -13.3209,12.9316 -5.6486,5.225 -12.3863,11.525 -14.9728,14 -2.5865,2.475 -11.1995,10.575 -19.1402,18 -7.9406,7.425 -17.0266,15.975 -20.1911,19 -7.9369,7.5871 -19.1775,17.2806 -24.7003,21.3006 -1.6619,1.2097 -8.7822,7.268 -15.8228,13.4629 -7.0407,6.1949 -17.6993,15.4199 -23.686,20.5 -5.9866,5.0801 -12.0616,10.3696 -13.5,11.7544 -1.4383,1.3849 -3.9652,3.3682 -5.6152,4.4074 -1.65,1.0393 -3.3599,2.4937 -3.7997,3.2321 -0.4398,0.7385 -2.2398,2.079 -4,2.979 -1.7602,0.9 -4.7753,2.9419 -6.7003,4.5375 -8.1361,6.7439 -14.1056,11.5702 -18.9565,15.3261 -2.8414,2.2 -6.826,5.3888 -8.8548,7.0862 -2.0288,1.6973 -5.1512,3.9319 -6.9387,4.9656 -1.7875,1.0337 -3.25,2.1879 -3.25,2.565 0,0.3771 -1.6778,1.6756 -3.7285,2.8855 -3.7135,2.191 -6.8474,4.5689 -14.1649,10.7477 -2.117,1.7875 -4.3019,3.25 -4.8554,3.25 -0.5535,0 -1.5433,0.647 -2.1996,1.4379 -1.3764,1.6584 -34.315,25.3339 -48.0846,34.5621 -2.0516,1.375 -6.3346,4.3 -9.5176,6.5 -3.183,2.2 -6.4973,4.45 -7.365,5 -0.8678,0.55 -3.0575,2.2375 -4.8659,3.75 -1.8085,1.5125 -3.6799,2.75 -4.1587,2.75 -0.4788,0 -2.7557,1.575 -5.0598,3.5 -2.3041,1.925 -4.6497,3.5 -5.2126,3.5 -0.5629,0 -2.5609,1.35 -4.4402,3 -1.8792,1.65 -4.0143,3 -4.7445,3 -0.7302,0 -3.0264,1.35 -5.1027,3 -2.0763,1.65 -4.1179,3 -4.537,3 -0.4191,0 -2.9769,1.4625 -5.684,3.25 -2.7071,1.7875 -6.8238,4.375 -9.1483,5.75 -2.3245,1.375 -6.1174,3.6691 -8.4285,5.098 -16.6816,10.3135 -35.692,21.9217 -38.2022,23.3272 -1.65,0.9238 -5.475,3.2152 -8.5,5.0919 -3.025,1.8767 -7.8438,4.5969 -10.7083,6.0449 -2.8646,1.448 -5.7322,3.2639 -6.3725,4.0353 -0.6402,0.7715 -1.7038,1.4027 -2.3635,1.4027 -0.6597,0 -2.9671,1.3375 -5.1276,2.9722 -2.1604,1.6347 -4.6282,2.9847 -5.4838,3 -0.8557,0.015 -3.0806,1.1528 -4.9443,2.5278 -1.8637,1.375 -3.9133,2.5 -4.5547,2.5 -0.6414,0 -2.9165,1.1907 -5.0558,2.646 -2.1392,1.4553 -8.6145,5.1262 -14.3895,8.1577 -5.775,3.0314 -12.75,6.7741 -15.5,8.3171 -2.75,1.543 -6.5808,3.6095 -8.5128,4.5923 -1.932,0.9828 -4.9265,2.7994 -6.6544,4.0369 -1.7278,1.2375 -3.7721,2.25 -4.5429,2.25 -0.7707,0 -2.9262,1.125 -4.7899,2.5 -1.8637,1.375 -3.9043,2.5 -4.5346,2.5 -0.6303,0 -3.8053,1.3124 -7.0557,2.9165 -3.2503,1.6041 -7.4847,3.6371 -9.4097,4.5178 -1.925,0.8806 -4.7375,2.2682 -6.25,3.0834 -1.5125,0.8153 -3.9875,2.1493 -5.5,2.9646 -1.5125,0.8152 -4.325,2.2059 -6.25,3.0904 -10.5382,4.8421 -32.0724,15.7354 -32.5119,16.4465 -0.2811,0.4548 -1.9684,1.1351 -3.7496,1.5117 -1.7812,0.3767 -4.5885,1.485 -6.2385,2.463 -1.65,0.9779 -4.125,2.0975 -5.5,2.4879 -2.3122,0.6564 -9.7757,3.9231 -19.5,8.5349 -8.5429,4.0515 -20.3073,8.9833 -21.4289,8.9833 -0.6475,0 -2.8328,1.125 -4.8563,2.5 -2.0235,1.375 -4.4508,2.5 -5.394,2.5 -0.9432,0 -3.8308,1.125 -6.4168,2.5 -2.586,1.375 -5.4159,2.5 -6.2886,2.5 -0.8727,0 -3.8432,1.0994 -6.601,2.4432 -8.1175,3.9552 -19.244,8.5568 -20.69,8.5568 -0.7372,0 -3.4536,1.125 -6.0366,2.5 -2.5829,1.375 -5.286,2.5 -6.0068,2.5 -0.7208,0 -2.9656,0.887 -4.9883,1.9711 -2.0227,1.0841 -5.8411,2.4904 -8.4852,3.125 -2.6441,0.6346 -5.8587,1.8084 -7.1436,2.6084 -1.2849,0.7999 -4.4349,2.081 -7,2.8468 -2.5651,0.7658 -6.4465,2.3051 -8.6253,3.4205 -2.1788,1.1155 -4.8788,2.0299 -6,2.0319 -1.1212,0 -3.4232,0.8481 -5.1154,1.88 -1.6923,1.032 -5.3928,2.373 -8.2233,2.98 -2.8305,0.607 -6.8392,2.011 -8.9083,3.12 -2.0691,1.109 -4.5115,2.0163 -5.4275,2.0163 -0.916,0 -4.0727,1.1206 -7.0148,2.4902 -2.9421,1.3697 -6.4917,2.4947 -7.8879,2.5 -1.3962,0.01 -4.3212,0.9208 -6.5,2.0341 -2.1788,1.1134 -5.7614,2.291 -7.9614,2.6169 -2.2,0.3258 -5.8,1.398 -8,2.3827 -4.3498,1.9468 -14.6382,5.4606 -21,7.1722 -2.2,0.5919 -6.025,1.8669 -8.5,2.8333 -2.475,0.9664 -6.525,2.0834 -9,2.4821 -2.475,0.3988 -5.715,1.3467 -7.2,2.1066 -1.485,0.7599 -5.0381,1.883 -7.8957,2.4958 -2.8576,0.6129 -7.0426,1.9531 -9.2999,2.9782 -2.2574,1.0252 -5.6968,1.8739 -7.643,1.8859 -1.9462,0.012 -5.2,0.8691 -7.2307,1.9044 -2.0307,1.0353 -6.2883,2.1965 -9.4614,2.5806 -3.1731,0.384 -6.7652,1.3364 -7.9823,2.1164 -1.2172,0.7801 -5.0951,1.8264 -8.6176,2.3253 -3.5225,0.4988 -7.7075,1.5808 -9.3001,2.4043 -1.5926,0.8236 -5.1397,1.8251 -7.8825,2.2256 -2.7427,0.4005 -6.6564,1.5691 -8.697,2.5968 -2.0406,1.0277 -5.3321,1.8686 -7.3146,1.8686 -1.9824,0 -5.7129,0.885 -8.2898,1.9667 -2.577,1.0817 -7.6104,2.4026 -11.1854,2.9353 -3.575,0.5327 -8.9606,1.6726 -11.9679,2.5333 -3.0074,0.8606 -6.848,1.5647 -8.5347,1.5647 -1.6867,0 -5.6274,0.9 -8.7571,2 -3.1297,1.1 -7.3891,2.0028 -9.4653,2.0062 -2.0763,0 -5.0936,0.6937 -6.7052,1.5341 -1.6115,0.8404 -5.6615,1.8019 -9,2.1366 -3.3384,0.3347 -8.224,1.4443 -10.8568,2.4658 -2.6329,1.0215 -6.6985,1.8573 -9.0347,1.8573 -2.3362,0 -6.8083,0.9 -9.938,2 -3.1297,1.1 -7.966,2 -10.7474,2 -2.7814,0 -6.6549,0.6676 -8.6076,1.4835 -1.9528,0.8159 -7.2258,1.7832 -11.7179,2.1495 -4.4921,0.3663 -9.9115,1.2737 -12.0431,2.0165 -2.1317,0.7428 -5.7331,1.3505 -8.0032,1.3505 -2.2701,0 -7.2746,0.9 -11.1211,2 -3.8465,1.1 -9.526,2 -12.6211,2 -3.0951,0 -7.5406,0.675 -9.8789,1.5 -2.3383,0.825 -7.5843,1.5 -11.6578,1.5 -4.3213,0 -8.9019,0.6248 -10.9964,1.5 -2.2003,0.9193 -6.763,1.5 -11.7864,1.5 -4.508,0 -10.4156,0.6285 -13.1279,1.3966 -2.7123,0.7681 -8.7623,1.6386 -13.4443,1.9346 -4.6821,0.2959 -9.7739,1.0174 -11.3151,1.6034 -1.5413,0.586 -6.0355,1.0761 -9.9872,1.0893 -3.9517,0.013 -8.9849,0.5138 -11.1849,1.1126 -2.2,0.5988 -10.075,1.496 -17.5,1.9937 -30.7275,2.0598 -43.1914,2.907 -56,3.8068 -26.7473,1.879 -50.9639,3.0054 -76.5,3.5586 -43.9388,0.9517 -92.564,1.0978 -101.5,0.3049 z m 85.5,-424.3966 c 39.9351,-0.8537 48.6301,-1.1664 63.5,-2.2842 7.975,-0.5995 20.575,-1.4963 28,-1.9928 7.425,-0.4966 15.525,-1.4444 18,-2.1063 2.6774,-0.716 7.1776,-0.9663 11.1108,-0.6179 4.5012,0.3986 8.1712,0.1121 11.5,-0.8978 2.6891,-0.8158 7.5892,-1.5077 10.8892,-1.5376 3.3,-0.03 8.025,-0.508 10.5,-1.0624 2.475,-0.5544 9.0684,-1.3953 14.652,-1.8688 5.5836,-0.4735 11.1533,-1.3967 12.3772,-2.0517 1.2239,-0.6551 5.8805,-1.4063 10.348,-1.6695 4.4676,-0.2632 9.8194,-1.1167 11.893,-1.8967 2.0737,-0.78 7.0796,-1.4182 11.1243,-1.4182 4.0447,0 9.2822,-0.6803 11.6388,-1.5118 2.3566,-0.8314 7.7007,-1.9084 11.8757,-2.3932 4.1751,-0.4848 8.8578,-1.3796 10.4061,-1.9883 1.5483,-0.6087 5.034,-1.1067 7.746,-1.1067 2.712,0 7.5202,-0.8587 10.6849,-1.9082 3.1647,-1.0495 8.3888,-2.184 11.6092,-2.5211 3.2203,-0.3371 6.7753,-1.1054 7.9001,-1.7073 1.1247,-0.602 5.3171,-1.5007 9.3165,-1.9972 3.9993,-0.4965 8.8673,-1.5695 10.8177,-2.3845 1.9505,-0.8149 5.4732,-1.5015 7.8284,-1.5256 2.3551,-0.024 6.0821,-0.7456 8.2821,-1.6032 2.2,-0.8577 7.15,-2.1555 11,-2.884 3.85,-0.7286 8.35,-2.0294 10,-2.8906 1.65,-0.8613 4.575,-1.5885 6.5,-1.616 1.925,-0.028 5.3,-0.7436 7.5,-1.5911 2.2,-0.8476 6.925,-2.096 10.5,-2.7741 3.575,-0.6781 7.4473,-1.7459 8.6052,-2.3727 1.1578,-0.6269 5.0191,-1.6052 8.5805,-2.1742 3.5615,-0.5689 7.7892,-1.6704 9.3949,-2.4477 1.6057,-0.7773 4.9444,-1.7348 7.4194,-2.1277 2.475,-0.393 6.075,-1.5066 8,-2.4748 1.925,-0.9682 5.525,-2.0825 8,-2.4763 2.475,-0.3937 5.5421,-1.3774 6.8158,-2.186 1.2737,-0.8085 5.0271,-1.9067 8.3408,-2.4403 3.3138,-0.5337 7.0317,-1.6299 8.2619,-2.436 1.2303,-0.8061 4.7103,-1.9228 7.7334,-2.4817 3.0231,-0.5588 7.2458,-1.9079 9.3838,-2.9979 2.1379,-1.09 4.8112,-1.9818 5.9406,-1.9818 1.1293,0 3.6217,-0.8395 5.5385,-1.8655 1.9169,-1.026 5.8188,-2.3651 8.671,-2.9757 2.8523,-0.6106 6.6773,-2.0194 8.5,-3.1307 1.8228,-1.1114 4.2316,-2.0223 5.3528,-2.0244 1.1212,0 3.8212,-0.9204 6,-2.0409 2.1788,-1.1204 5.9406,-2.4873 8.3596,-3.0374 2.4191,-0.5502 5.6385,-1.8835 7.1544,-2.9629 1.5159,-1.0794 3.8117,-1.9724 5.1018,-1.9845 1.2901,-0.012 4.3706,-0.9569 6.8456,-2.0997 4.378,-2.0215 8.9165,-3.7477 20.75,-7.8921 3.1625,-1.1076 7.775,-2.9657 10.25,-4.1291 11.1193,-5.2266 21.7642,-9.7506 28.5,-12.1123 3.209,-1.1251 11.552,-4.8305 20.5144,-9.1111 3.0328,-1.4485 6.0071,-2.6337 6.6095,-2.6337 1.0193,0 12.0039,-5.0964 15.3761,-7.1339 0.825,-0.4985 3.075,-1.5832 5,-2.4104 5.21,-2.239 16.1483,-7.4491 19,-9.0501 1.375,-0.772 6.325,-3.2655 11,-5.5411 19.4922,-9.4884 34.8672,-17.2218 40.5,-20.371 3.3,-1.845 8.025,-4.4376 10.5,-5.7613 2.475,-1.3238 7.65,-4.1237 11.5,-6.2221 3.85,-2.0984 9.025,-4.9113 11.5,-6.251 2.475,-1.3397 7.2,-3.9507 10.5,-5.8023 3.3,-1.8516 7.35,-4.0306 9,-4.8422 1.65,-0.8116 4.5499,-2.6319 6.4443,-4.0451 1.8943,-1.4132 3.8769,-2.5695 4.4056,-2.5695 0.5287,0 2.4355,-1.1244 4.2374,-2.4988 1.8018,-1.3743 4.3193,-2.9608 5.5944,-3.5255 1.275,-0.5647 3.7312,-2.0278 5.458,-3.2512 1.7268,-1.2235 4.6161,-3.1245 6.4207,-4.2245 1.8045,-1.1 4.679,-2.9 6.3877,-4 1.7087,-1.1 4.6016,-2.9 6.4287,-4 5.1878,-3.1233 12.1164,-7.4435 18.1232,-11.3003 3.025,-1.9423 7.075,-4.5051 9,-5.6952 4.2148,-2.6056 16.3297,-10.6776 23.2701,-15.5045 7.3565,-5.1162 12.8414,-8.7736 16.1276,-10.7538 1.5938,-0.9604 4.3532,-2.9837 6.132,-4.4962 1.7789,-1.5125 3.6249,-2.7544 4.1023,-2.7597 0.4774,-0.01 2.893,-1.5604 5.368,-3.4557 9.665,-7.4012 16.6893,-12.4259 21.3657,-15.2835 1.5761,-0.9631 4.7261,-3.1961 7,-4.9621 2.2739,-1.7661 6.0527,-4.6911 8.3975,-6.5 2.3447,-1.809 6.2346,-4.864 8.6442,-6.789 2.4096,-1.925 6.9635,-5.525 10.1197,-8 3.1562,-2.475 7.3663,-5.8888 9.3557,-7.5862 1.9895,-1.6973 5.0797,-3.9319 6.8672,-4.9656 1.7875,-1.0337 3.25,-2.1957 3.25,-2.5822 0,-0.3866 1.6875,-1.706 3.75,-2.9319 2.0625,-1.226 4.875,-3.2852 6.25,-4.5759 1.375,-1.2908 5.3727,-4.712 8.8838,-7.6026 3.511,-2.8906 10.261,-8.6689 15,-12.8407 4.7389,-4.1718 9.3475,-7.9968 10.2413,-8.5 1.5046,-0.8471 33.9601,-29.891 36.5124,-32.6744 0.6256,-0.6823 4.0006,-3.8801 7.5,-7.1062 15.9496,-14.7043 39.2239,-36.9121 43.1173,-41.1416 1.5152,-1.646 3.4431,-3.6677 4.2843,-4.4927 3.8792,-3.8048 31.7024,-32.8134 37.9609,-39.5783 3.85,-4.1615 9.025,-9.7292 11.5,-12.3725 2.475,-2.6433 7.2,-8.0807 10.5,-12.083 3.3,-4.0023 7.6029,-8.8945 9.5619,-10.8715 1.9591,-1.9771 4.6357,-5.1697 5.9482,-7.0947 1.3124,-1.925 4.2095,-5.3602 6.438,-7.6337 7.599,-7.7524 13.699,-14.8612 15.9386,-18.5742 1.23,-2.0393 3.4552,-4.6665 4.9449,-5.8383 1.4896,-1.1717 3.4225,-3.5114 4.2954,-5.1993 0.8728,-1.6879 3.4841,-5.1357 5.8029,-7.6617 2.3188,-2.526 5.2993,-6.3928 6.6234,-8.5928 1.3241,-2.2 3.6342,-5.0361 5.1336,-6.3023 1.4994,-1.2663 4.1028,-4.7084 5.7853,-7.649 1.6824,-2.9407 3.7189,-5.5999 4.5254,-5.9094 0.8065,-0.3095 3.4547,-3.6646 5.8848,-7.4558 2.4301,-3.7912 5.1199,-7.1623 5.9773,-7.4913 0.8574,-0.329 2.7304,-2.91 4.1622,-5.7354 1.4318,-2.8255 4.3167,-7.0091 6.4109,-9.297 2.0943,-2.2879 4.7692,-6.0603 5.9443,-8.3832 1.175,-2.3229 3.6776,-5.7647 5.5613,-7.6483 1.8836,-1.8837 4.536,-5.6081 5.8942,-8.2766 1.3582,-2.6684 3.6841,-5.9767 5.1686,-7.3517 1.4846,-1.375 4.0223,-5.1105 5.6393,-8.3012 1.617,-3.1907 4.3196,-7.2407 6.0058,-9 1.6861,-1.7593 4.4267,-5.8988 6.0901,-9.1988 1.6634,-3.3 4.3209,-7.4841 5.9056,-9.298 1.5847,-1.8139 4.4014,-6.3139 6.2593,-10 1.8579,-3.6861 4.3774,-7.602 5.5987,-8.702 1.2213,-1.1 3.792,-5.15 5.7125,-9 1.9206,-3.85 4.7716,-8.35 6.3356,-10 1.564,-1.65 4.0549,-5.7 5.5353,-9 1.4804,-3.3 4.3944,-8.25 6.4755,-11 2.0811,-2.75 4.7184,-7.3771 5.8607,-10.2824 2.25,-5.7231 4.0304,-8.7958 8.2379,-14.2176 1.4939,-1.925 3.6438,-5.8771 4.7775,-8.7824 2.1775,-5.5799 3.8564,-8.5161 8.1297,-14.2176 1.4428,-1.925 4.081,-7.0668 5.8628,-11.4263 1.7818,-4.3595 4.3647,-9.4013 5.7397,-11.204 1.3749,-1.8027 4.4593,-7.7917 6.8542,-13.3089 2.3948,-5.5172 5.5111,-11.5479 6.9249,-13.4016 1.4139,-1.8537 4.3371,-7.7115 6.496,-13.0174 2.1589,-5.3059 4.7963,-10.8834 5.8609,-12.3944 3.2034,-4.5468 6.3379,-11.2899 9.2426,-19.8828 1.5124,-4.4745 4.5266,-11.0812 6.6981,-14.6816 2.1715,-3.6004 5.1376,-10.0645 6.5914,-14.3646 1.4537,-4.3001 4.9123,-12.3184 7.6856,-17.8184 2.7733,-5.5 7.2569,-16.5909 9.9635,-24.6465 2.7066,-8.0556 6.4988,-17.6205 8.4271,-21.2553 1.9283,-3.6348 5.8186,-13.9189 8.6451,-22.8535 2.8265,-8.9346 6.6058,-19.6197 8.3984,-23.7447 4.3355,-9.9767 6.6187,-16.6824 11.5761,-34 2.283,-7.975 7.4209,-24.4 11.4177,-36.5 9.0161,-27.2963 18.7501,-66.2935 33.5719,-134.5 2.1272,-9.789 14.0824,-74.5413 16.8936,-91.5 3.9827,-24.0262 4.8211,-30.7212 6.5744,-52.5 0.8191,-10.175 2.411,-25.025 3.5376,-33 1.1265,-7.975 2.4652,-23.95 2.9748,-35.5 0.5097,-11.55 1.4243,-25.05 2.0325,-30 0.6083,-4.95 0.824,-13.05 0.4793,-18 -0.3855,-5.5362 -0.023,-15.241 0.9421,-25.2157 1.1958,-12.3603 1.3111,-17.3533 0.485,-21 -0.7151,-3.1565 -0.8053,-8.697 -0.2653,-16.2843 0.4502,-6.325 0.6752,-12.4 0.5,-13.5 -0.1752,-1.1 -0.494,-11.45 -0.7084,-23 -0.6672,-35.9352 -1.1303,-47.8763 -1.9973,-51.5 -0.4606,-1.925 -0.9304,-9.125 -1.0441,-16 -0.2847,-17.2234 -1.9869,-39.7863 -3.3189,-43.9934 -0.6083,-1.9214 -1.106,-7.0993 -1.106,-11.5066 0,-4.4073 -0.484,-9.5852 -1.0756,-11.5066 -0.5916,-1.9214 -1.4929,-8.8934 -2.003,-15.4934 -1.7299,-22.3841 -2.7718,-30.9882 -4.3485,-35.9089 -0.8651,-2.6999 -1.5729,-7.7533 -1.5729,-11.2298 0,-3.4765 -0.6382,-8.0174 -1.4182,-10.0911 -0.78,-2.0736 -1.6335,-7.4254 -1.8967,-11.893 -0.2632,-4.4675 -1.0128,-9.121 -1.6658,-10.3412 -0.653,-1.2202 -1.4065,-5.6649 -1.6744,-9.8772 -0.2679,-4.2124 -1.1268,-9.2338 -1.9086,-11.1588 -0.7818,-1.925 -1.8441,-6.65 -2.3607,-10.5 -0.5165,-3.85 -1.6449,-9.4606 -2.5074,-12.4679 -0.8625,-3.0074 -1.5682,-7.1922 -1.5682,-9.2997 0,-2.1074 -0.6386,-5.0667 -1.4191,-6.5761 -0.7806,-1.5093 -1.7398,-6.0995 -2.1316,-10.2003 -0.3918,-4.1008 -1.2757,-8.581 -1.9642,-9.956 -0.6884,-1.375 -1.5817,-5.425 -1.9851,-9 -0.4034,-3.575 -1.3364,-7.6774 -2.0734,-9.1166 -0.737,-1.4391 -1.7717,-5.2641 -2.2995,-8.5 -0.5278,-3.2358 -1.5079,-7.2334 -2.178,-8.8834 -0.6701,-1.65 -1.7946,-5.925 -2.4988,-9.5 -0.7042,-3.575 -1.9739,-8.3 -2.8215,-10.5 -0.8475,-2.2 -1.5608,-5.4134 -1.5849,-7.1408 -0.024,-1.7274 -0.934,-5.1024 -2.0219,-7.5 -1.088,-2.3976 -2.0077,-5.9342 -2.0439,-7.8592 -0.036,-1.925 -0.7657,-5.3 -1.621,-7.5 -0.8553,-2.2 -2.15,-6.6208 -2.8772,-9.824 -0.7272,-3.2032 -1.9954,-7.2532 -2.8182,-9 -0.8228,-1.7468 -1.8192,-4.976 -2.2141,-7.176 -0.3949,-2.2 -1.5032,-5.575 -2.463,-7.5 -0.9597,-1.925 -2.0671,-5.525 -2.4609,-8 -0.3937,-2.475 -1.3649,-5.5229 -2.158,-6.7732 -0.7932,-1.2502 -1.9169,-4.8411 -2.4971,-7.9798 -0.5802,-3.1387 -1.6879,-6.9307 -2.4616,-8.4269 -0.7737,-1.4961 -1.9059,-5.1051 -2.5159,-8.0201 -0.6101,-2.915 -1.9602,-6.7031 -3.0002,-8.418 -1.04,-1.715 -1.8909,-3.9685 -1.8909,-5.008 0,-1.0394 -1.125,-4.0032 -2.5,-6.5862 -1.375,-2.5829 -2.5,-5.7467 -2.5,-7.0306 0,-1.2839 -0.9124,-4.117 -2.0275,-6.2958 -1.1151,-2.1788 -2.6481,-6.2114 -3.4066,-8.9614 -1.3357,-4.8424 -3.9359,-11.731 -7.5493,-20.0003 -0.9614,-2.2002 -2.0845,-5.5752 -2.4957,-7.5 -0.744,-3.4822 -3.4063,-9.9644 -8.0088,-19.4997 -1.3274,-2.75 -2.9496,-6.8 -3.605,-9 -0.6554,-2.2 -1.8138,-4.9 -2.5742,-6 -0.7604,-1.1 -1.8632,-3.8 -2.4507,-6 -0.5875,-2.2 -1.6595,-4.675 -2.3822,-5.5 -0.7227,-0.825 -1.8008,-3.3 -2.3958,-5.5 -0.595,-2.2 -2.2119,-6.2138 -3.593,-8.9195 -1.3812,-2.7057 -2.5112,-5.6825 -2.5112,-6.6151 0,-0.9326 -0.8721,-2.8044 -1.938,-4.1595 -1.0659,-1.355 -2.2489,-3.7782 -2.6289,-5.3848 -0.38,-1.6066 -1.5084,-4.4961 -2.5075,-6.4211 -0.9992,-1.925 -4.0896,-8.31 -6.8677,-14.1888 -2.778,-5.8789 -5.4678,-10.9465 -5.9775,-11.2615 -0.5096,-0.3149 -1.2173,-1.8963 -1.5726,-3.5142 -0.3553,-1.6179 -1.4495,-3.9752 -2.4315,-5.2385 -0.982,-1.2634 -2.357,-4.097 -3.0556,-6.297 -1.2049,-3.7944 -3.7568,-9.3411 -7.3613,-16 -0.8932,-1.65 -2.3183,-4.575 -3.1669,-6.5 -0.8486,-1.925 -2.0615,-4.4 -2.6952,-5.5 -0.6337,-1.1 -3.8072,-7.175 -7.0522,-13.5 -3.245,-6.325 -7.4365,-14.2 -9.3145,-17.5 -1.8779,-3.3 -4.0862,-7.4317 -4.9074,-9.1816 -0.8211,-1.7499 -1.893,-3.4289 -2.3821,-3.7312 -0.489,-0.3022 -2.0846,-2.9205 -3.5457,-5.8183 -7.4083,-14.6934 -18.6658,-34.4301 -27.772,-48.6903 -1.5529,-2.4318 -2.8234,-4.9848 -2.8234,-5.6733 0,-0.6885 -1.03,-2.5239 -2.2889,-4.0786 -1.2589,-1.5547 -2.8436,-3.9517 -3.5214,-5.3267 -0.6779,-1.375 -2.2354,-3.9129 -3.4611,-5.6397 -2.4161,-3.4039 -5.4228,-8.2686 -7.608,-12.3095 -0.7587,-1.4029 -2.2544,-3.5152 -3.3239,-4.6939 -1.0694,-1.1787 -2.6987,-3.485 -3.6206,-5.1251 -0.9218,-1.6401 -3.4761,-5.5665 -5.6761,-8.7253 -4.9219,-7.067 -8.951,-13.0998 -11.2538,-16.8506 -0.9604,-1.5643 -3.2043,-4.7143 -4.9865,-7 -1.7822,-2.2858 -3.2447,-4.5465 -3.25,-5.0239 -0.01,-0.4774 -1.2472,-2.3234 -2.7597,-4.1023 -1.5125,-1.7788 -3.5358,-4.5382 -4.4962,-6.132 -1.6775,-2.7839 -3.754,-5.9205 -10.2538,-15.4891 -1.65,-2.429 -5.7,-7.9675 -9,-12.3078 -3.3,-4.3402 -6.6457,-8.8385 -7.4349,-9.9961 -0.7892,-1.1576 -2.6513,-3.4547 -4.138,-5.1047 -1.4868,-1.65 -3.4401,-4.4625 -4.3408,-6.25 -0.9007,-1.7875 -2.0333,-3.25 -2.517,-3.25 -0.4836,0 -2.066,-2.025 -3.5164,-4.5 -1.4505,-2.475 -2.9712,-4.5 -3.3794,-4.5 -0.4083,0 -1.5881,-1.4625 -2.6219,-3.25 -2.1262,-3.6765 -4.0228,-6.0588 -16.3217,-20.5016 -4.8015,-5.6383 -10.5299,-12.5216 -12.7299,-15.2962 -2.2,-2.7746 -5.4692,-6.7114 -7.265,-8.7485 -3.1954,-3.6249 -11.0571,-12.7333 -17.8698,-20.7037 -1.8804,-2.2 -5.2069,-6.0753 -7.3921,-8.6118 -2.1852,-2.5365 -3.9731,-4.8969 -3.9731,-5.2454 0,-0.3484 -3.9375,-4.7138 -8.75,-9.7008 -4.8125,-4.9871 -11,-11.5467 -13.75,-14.577 -2.75,-3.0303 -9.275,-9.9623 -14.5,-15.4044 -5.225,-5.4422 -11.975,-12.6492 -15,-16.0156 -3.025,-3.3664 -6.5856,-7.0937 -7.9124,-8.2829 -1.3269,-1.1891 -3.1269,-3.0283 -4,-4.087 -1.7622,-2.1367 -1.3396,-1.7248 -17.5214,-17.0751 -6.3777,-6.05 -16.5084,-15.8375 -22.5126,-21.75 -6.0042,-5.9125 -11.3721,-10.75 -11.9286,-10.75 -0.5566,0 -1.7551,-1.2581 -2.6634,-2.7957 -0.9083,-1.5377 -3.292,-3.9002 -5.2971,-5.25 -2.0051,-1.3499 -5.5079,-4.2543 -7.784,-6.4543 -2.2761,-2.2 -7.4127,-6.7 -11.4148,-10 -4.002,-3.3 -9.0033,-7.7589 -11.114,-9.9087 -2.1106,-2.1498 -5.3816,-4.8498 -7.2687,-6 -1.8872,-1.1502 -4.4092,-3.343 -5.6045,-4.8729 -1.1954,-1.5299 -4.5759,-4.3185 -7.5123,-6.1969 -2.9365,-1.8784 -5.815,-4.3046 -6.3967,-5.3916 -0.5817,-1.087 -3.4872,-3.3664 -6.4565,-5.0653 -2.9694,-1.6989 -6.104,-4.1651 -6.9659,-5.4804 -0.8619,-1.3154 -3.9475,-3.7602 -6.8571,-5.433 -2.9095,-1.6728 -5.8445,-3.9472 -6.5222,-5.0542 -0.6776,-1.107 -3.6026,-3.5409 -6.5,-5.4087 -2.8973,-1.8677 -6.1678,-4.4156 -7.2678,-5.6619 -1.1,-1.2463 -4.475,-3.8516 -7.5,-5.7896 -3.025,-1.9379 -6.0938,-4.3673 -6.8196,-5.3986 -0.7258,-1.0313 -3.5789,-3.0199 -6.3402,-4.4192 -2.7614,-1.3993 -6.8925,-4.2557 -9.1804,-6.3477 -2.2879,-2.092 -5.6738,-4.577 -7.5242,-5.5223 -1.8504,-0.9452 -5.2254,-3.4221 -7.5,-5.5041 -2.2746,-2.082 -6.0928,-4.7758 -8.485,-5.9862 -2.3922,-1.2104 -6.2172,-3.9086 -8.5,-5.9959 -2.2828,-2.0873 -5.7256,-4.5799 -7.6506,-5.5391 -1.925,-0.9592 -5.0804,-3.2562 -7.012,-5.1044 -1.9316,-1.8483 -6.2519,-4.6876 -9.6006,-6.3098 -3.3487,-1.6221 -7.6183,-4.3849 -9.488,-6.1394 -1.8697,-1.7546 -5.8631,-4.3047 -8.8744,-5.667 -3.0112,-1.3623 -7.2299,-4.0624 -9.3749,-6.0003 -2.145,-1.9379 -6.3039,-4.5865 -9.2421,-5.8859 -2.9381,-1.2994 -7.097,-3.948 -9.242,-5.8859 -2.145,-1.9379 -6.5474,-4.6917 -9.783,-6.1195 -3.2357,-1.4279 -7.7439,-4.1174 -10.0183,-5.9768 -2.2745,-1.8594 -7.4495,-4.8956 -11.5,-6.7472 -4.0506,-1.8516 -8.7834,-4.5669 -10.5174,-6.034 -1.7339,-1.4671 -6.2339,-4.0821 -10,-5.8111 -3.766,-1.729 -9.0973,-4.8374 -11.8473,-6.9075 -2.75,-2.0701 -8.0831,-4.9935 -11.8514,-6.4963 -3.7682,-1.5029 -9.1411,-4.3075 -11.9397,-6.2326 -2.7987,-1.9251 -9.3225,-5.1974 -14.4975,-7.2716 -5.175,-2.0743 -10.3771,-4.625 -11.5602,-5.6683 -3.4216,-3.0171 -6.6562,-4.7499 -14.2338,-7.6254 -3.8955,-1.4782 -10.0623,-4.6447 -13.7041,-7.0366 -3.6418,-2.392 -9.8871,-5.4189 -13.8784,-6.7266 -3.9913,-1.3076 -10.5492,-4.2532 -14.5731,-6.5457 -4.0239,-2.2925 -12.3664,-6.0626 -18.539,-8.378 -6.1725,-2.3154 -12.3478,-4.9934 -13.7228,-5.9512 -4.6254,-3.2219 -10.5211,-5.8098 -20.5392,-9.0157 -5.4784,-1.7531 -14.9108,-5.5688 -20.9608,-8.4793 -6.05,-2.9104 -15.05,-6.5246 -20,-8.0315 -4.95,-1.5069 -13.95,-4.8764 -20,-7.4879 -12.9963,-5.6099 -19.6709,-7.9669 -32.5,-11.4769 -13.7083,-3.7506 -24.6157,-7.4023 -31.6149,-10.5845 -7.5034,-3.4114 -17.4844,-6.4488 -40.8851,-12.4419 -9.9,-2.5355 -22.725,-5.9626 -28.5,-7.6159 -19.2325,-5.5058 -43.2942,-11.9981 -62.5,-16.8637 -17.9213,-4.5402 -28.0688,-6.6906 -59,-12.5031 -34.7313,-6.5266 -41.0131,-7.5614 -54.5,-8.9781 -7.975,-0.8377 -27.325,-3.5765 -43,-6.0863 -21.5256,-3.4466 -33.1496,-4.7833 -47.5,-5.4623 -10.45,-0.4944 -25.3,-1.8613 -33,-3.0375 -10.3171,-1.576 -19.5427,-2.199 -35.0699,-2.368 -11.5884,-0.1261 -21.6611,-0.5947 -22.3837,-1.0413 -1.1672,-0.7214 -41.9034,-1.9021 -57.5464,-1.668 -3.3,0.049 -12.3,0.042 -20,-0.016 -19.4307,-0.1475 -18.6492,-0.1693 -41.5,1.1535 -11.275,0.6527 -25.9,1.3224 -32.5,1.4884 -11.1575,0.2805 -27.6551,1.2532 -57,3.3608 -6.6,0.4741 -13.2668,1.3774 -14.8151,2.0074 -1.5483,0.6301 -6.8138,1.1456 -11.7012,1.1456 -4.8874,0 -11.4776,0.675 -14.645,1.5 -3.1674,0.825 -8.9269,1.5068 -12.7988,1.5151 -3.8719,0.01 -8.8399,0.6635 -11.0399,1.4561 -2.2,0.7925 -6.7968,1.4608 -10.2151,1.4849 -3.4182,0.024 -8.1432,0.6696 -10.5,1.4344 -2.3567,0.7648 -8.0012,1.651 -12.5434,1.9693 -4.5421,0.3184 -9.1848,1.0747 -10.317,1.6806 -1.1322,0.6059 -6.4159,1.4412 -11.7415,1.8561 -5.3257,0.4149 -10.583,1.2216 -11.683,1.7925 -1.1,0.571 -5.2396,1.2965 -9.199,1.6121 -3.9595,0.3157 -8.1142,1.0637 -9.2327,1.6623 -1.1184,0.5986 -5.7067,1.5489 -10.196,2.1118 -4.4894,0.563 -9.3348,1.6141 -10.7674,2.3358 -1.4327,0.7217 -5.8336,1.5705 -9.7799,1.8862 -3.9462,0.3156 -8.5364,1.2779 -10.2003,2.1383 -1.664,0.8605 -5.1852,1.5843 -7.825,1.6084 -2.6399,0.024 -6.5997,0.7362 -8.7997,1.5824 -2.2,0.8462 -7.3111,2.1617 -11.3581,2.9233 -4.0469,0.7617 -7.8719,1.8027 -8.5,2.3134 -0.628,0.5108 -4.3422,1.4199 -8.2538,2.0204 -3.9115,0.6005 -8.4115,1.7697 -10,2.5981 -1.5884,0.8284 -4.4631,1.5287 -6.3881,1.5562 -1.925,0.028 -5.3,0.7525 -7.5,1.6109 -2.2,0.8585 -6.925,2.1219 -10.5,2.8076 -6.1218,1.1743 -11.4722,2.6891 -22,6.2287 -2.475,0.8322 -7.3426,2.1528 -10.8169,2.9348 -3.4742,0.782 -7.2992,2.0524 -8.5,2.8231 -1.2007,0.7708 -4.4331,1.7144 -7.1831,2.0971 -2.75,0.3827 -6.35,1.4897 -8,2.4601 -1.65,0.9704 -5.2394,2.0852 -7.9765,2.4774 -2.7371,0.3922 -6.5621,1.507 -8.5,2.4772 -1.9379,0.9703 -5.4773,2.0644 -7.8653,2.4313 -2.3879,0.3669 -6.0825,1.5552 -8.2101,2.6406 -2.1276,1.0854 -4.6912,1.9735 -5.6968,1.9735 -1.0056,0 -3.6111,0.9159 -5.7899,2.0353 -2.1788,1.1195 -5.9864,2.5299 -8.4614,3.1344 -2.475,0.6045 -5.85,1.8901 -7.5,2.8568 -1.65,0.9668 -4.5243,2.0806 -6.3873,2.4752 -1.863,0.3946 -5.688,1.7888 -8.5,3.0981 -2.812,1.3094 -6.2501,2.3851 -7.6402,2.3904 -1.3901,0.01 -3.4563,0.6604 -4.5915,1.4555 -1.1352,0.7951 -4.2728,1.987 -6.9725,2.6486 -2.6997,0.6616 -6.9299,2.261 -9.4005,3.5543 -2.4707,1.2933 -5.1707,2.3531 -6,2.3551 -0.8294,0 -2.9517,0.8841 -4.7163,1.96 -1.7646,1.0759 -5.6937,2.6787 -8.7315,3.5618 -3.0378,0.8831 -5.7618,1.9918 -6.0535,2.4636 -0.2916,0.4719 -2.7403,1.592 -5.4415,2.4892 -2.7012,0.8972 -5.4411,2.2697 -6.0887,3.05 -0.6476,0.7803 -2.8197,1.7062 -4.827,2.0576 -2.0072,0.3513 -5.5124,1.6539 -7.7894,2.8945 -2.2769,1.2406 -5.7187,2.5519 -7.6485,2.9139 -1.9298,0.3621 -4.5669,1.4878 -5.8602,2.5017 -1.2932,1.0138 -3.9264,2.1772 -5.8514,2.5852 -1.925,0.408 -5.525,1.7702 -8,3.0271 -2.475,1.2568 -6.075,3.0039 -8,3.8823 -1.925,0.8784 -4.175,2.0076 -5,2.5094 -1.4981,0.9112 -7.4098,3.6926 -22.5,10.5859 -4.4,2.0099 -8.675,4.0761 -9.5,4.5915 -1.7721,1.1071 -4.2171,2.2931 -9,4.3657 -1.925,0.8342 -4.175,1.9355 -5,2.4473 -0.825,0.5118 -6.225,3.2577 -12,6.1019 -5.775,2.8442 -12.75,6.466 -15.5,8.0484 -2.75,1.5824 -7.25,4.0488 -10,5.481 -2.75,1.4321 -7.1164,3.8131 -9.7031,5.2911 -4.7978,2.7414 -16.2795,8.8392 -29.8974,15.8782 -4.1803,2.1608 -8.8535,4.9142 -10.3849,6.1188 -1.5314,1.2046 -3.3368,2.1902 -4.012,2.1902 -0.6752,0 -2.9263,1.35 -5.0026,3 -2.0763,1.65 -4.3184,3 -4.9825,3 -0.6641,0 -1.9848,0.8589 -2.9348,1.9086 -0.95,1.0498 -3.1573,2.4814 -4.905,3.1815 -1.7477,0.7001 -4.6559,2.5412 -6.4625,4.0914 -1.8066,1.5502 -3.9096,2.8185 -4.6733,2.8185 -0.7636,0 -2.7254,1.125 -4.3595,2.5 -1.6341,1.375 -3.4341,2.5 -4,2.5 -0.5659,0 -2.3733,1.1312 -4.0163,2.5137 -1.643,1.3825 -4.49,3.2021 -6.3267,4.0435 -1.8367,0.8415 -4.7523,2.5228 -6.4791,3.7363 -1.7268,1.2136 -4.6395,3.1065 -6.4726,4.2065 -1.8331,1.1 -4.7309,2.9 -6.4396,4 -1.7087,1.1 -4.5765,2.9 -6.373,4 -1.7964,1.1 -4.8601,3.2375 -6.8081,4.75 -1.9481,1.5125 -3.8876,2.75 -4.3099,2.75 -0.4223,0 -2.5584,1.4625 -4.7468,3.25 -2.1884,1.7875 -5.2685,4.038 -6.8446,5.0011 -2.8487,1.7407 -8.0422,5.3718 -11.8657,8.2959 -3.3146,2.535 -8.8239,6.3432 -11.8657,8.2019 -1.5761,0.9631 -4.5896,3.1011 -6.6966,4.7511 -6.9291,5.4261 -12.6226,9.5 -13.2769,9.5 -0.3539,0 -2.7849,1.5665 -5.4021,3.481 -2.6173,1.9146 -6.4752,4.7271 -8.5731,6.25 -3.7295,2.7073 -9.5376,7.4706 -19.5326,16.019 -2.7331,2.3375 -5.3909,4.25 -5.9061,4.25 -0.5153,0 -1.7942,0.9584 -2.8419,2.1297 -1.0478,1.1713 -3.705,3.2618 -5.905,4.6455 -2.2,1.3837 -4.3616,3.1285 -4.8036,3.8774 -0.442,0.7488 -2.467,2.2373 -4.5,3.3078 -2.033,1.0704 -4.7561,3.0922 -6.0514,4.4929 -1.2952,1.4007 -2.7601,2.5467 -3.2553,2.5467 -0.4952,0 -5.5104,4.0406 -11.145,8.9792 -12.9992,11.3933 -17.0464,14.9187 -23.2301,20.2349 -2.742,2.3572 -7.1309,6.4234 -9.7532,9.0359 -2.6223,2.6125 -5.0572,4.75 -5.4109,4.75 -0.3537,0 -2.8076,1.9125 -5.4531,4.25 -2.6456,2.3375 -6.7092,5.825 -9.0303,7.75 -2.3211,1.925 -8.6217,7.775 -14.0014,13 -5.3796,5.225 -11.0377,10.6558 -12.5734,12.0684 -1.5358,1.4125 -4.2026,4.1125 -5.9264,6 -1.7237,1.8874 -7.6964,7.7066 -13.2725,12.9316 -16.4376,15.4025 -31.8707,31.1491 -50.7899,51.8219 -2.8581,3.1229 -9.5278,10.1781 -14.8217,15.6781 -5.2939,5.5 -10.5504,11.6422 -11.681,13.6493 -1.1307,2.0071 -3.0605,4.1869 -4.2884,4.8441 -1.2279,0.6571 -3.5059,3.2093 -5.0622,5.6714 -1.5563,2.4622 -3.9955,5.4577 -5.4204,6.6566 -1.4248,1.199 -4.0564,4.3104 -5.8479,6.9143 -1.7916,2.6039 -4.1194,5.1956 -5.1729,5.7595 -1.0536,0.5639 -3.4877,3.3831 -5.409,6.265 -1.9214,2.8819 -4.428,5.8127 -5.5702,6.5129 -1.1422,0.7003 -3.4592,3.52 -5.1489,6.266 -1.6897,2.7461 -3.915,5.444 -4.9451,5.9953 -1.0302,0.5513 -3.0835,3.1316 -4.5629,5.734 -1.4794,2.6024 -4.3271,6.5316 -6.3282,8.7316 -2.0011,2.2 -5.1923,6.3616 -7.0915,9.2481 -1.8993,2.8864 -3.7937,5.2489 -4.2098,5.25 -0.4161,0 -2.7516,3.1145 -5.1901,6.9187 -2.4384,3.8042 -5.0874,7.2917 -5.8866,7.75 -0.7992,0.4583 -3.2461,3.5332 -5.4375,6.8332 -2.1914,3.3 -4.988,6.9 -6.2148,8 -1.2268,1.1 -3.2918,4.0926 -4.5888,6.6502 -1.297,2.5577 -4.1838,6.7596 -6.4151,9.3376 -2.2313,2.5781 -4.6871,6.1958 -5.4574,8.0394 -0.7703,1.8436 -3.1765,5.2917 -5.3471,7.6624 -2.1706,2.3707 -4.9369,6.2676 -6.1473,8.6598 -1.2104,2.3922 -3.9116,6.2172 -6.0026,8.5 -2.091,2.2828 -4.9354,6.4006 -6.3208,9.1506 -1.3855,2.75 -3.5174,5.9 -4.7375,7 -1.2202,1.1 -3.7898,5.15 -5.7103,9 -1.9206,3.85 -4.7609,8.35 -6.3118,10 -1.551,1.65 -4.2084,5.9256 -5.9054,9.5013 -1.6969,3.5758 -4.4749,8.0758 -6.1731,10 -1.6983,1.9243 -4.2059,5.9737 -5.5724,8.9987 -1.3666,3.025 -4.1649,7.525 -6.2185,10 -2.0535,2.475 -5.1427,7.535 -6.8648,11.2444 -1.7222,3.7094 -4.2727,8.241 -5.6679,10.0702 -1.3952,1.8292 -4.3012,7.1452 -6.4579,11.8134 -2.1567,4.6681 -5.0873,9.8732 -6.5124,11.5668 -1.425,1.6936 -4.3242,6.8426 -6.4426,11.4422 -2.1184,4.5997 -4.9829,9.713 -6.3655,11.363 -3.1185,3.7216 -5.0274,7.4799 -7.2443,14.2627 -0.9461,2.8945 -3.5027,7.9323 -5.6815,11.195 -2.1787,3.2627 -5.5149,9.8895 -7.4138,14.7262 -1.8988,4.8367 -5.0023,11.049 -6.8967,13.8051 -1.8943,2.756 -5.0511,9.228 -7.0151,14.3821 -1.9639,5.1541 -5.1038,11.9041 -6.9776,15 -1.8737,3.0959 -5.0159,10.1289 -6.9826,15.6289 -1.9666,5.5 -5.7862,14.275 -8.4879,19.5 -2.7017,5.225 -6.1219,13.1 -7.6004,17.5 -1.4785,4.4 -4.8449,12.5 -7.4808,18 -2.636,5.5 -6.8823,16.633 -9.4362,24.7399 -2.5539,8.1069 -6.1888,17.7046 -8.0775,21.3281 -3.7565,7.2069 -7.1432,16.563 -10.4727,28.932 -3.169,11.7727 -6.8679,22.9388 -10.6591,32.1773 -4.7616,11.6034 -7.3628,20.3196 -14.8238,49.6737 -3.6138,14.218 -8.5747,31.993 -11.0241,39.5 -4.0578,12.4363 -13.9805,53.1187 -20.0743,82.3028 -3.2968,15.7893 -9.9111,55.7686 -12.4654,75.3462 -3.0508,23.3825 -5.5787,40.9264 -8.5012,59 -1.5985,9.8857 -2.9249,23.4519 -3.4708,35.5 -0.486,10.725 -1.6118,24.225 -2.5017,30 -2.1166,13.7353 -4.1524,61.5457 -4.7051,110.5 -0.2105,18.6468 1.1954,77.6534 2.2397,94 2.5415,39.7809 2.9226,45.635 3.7757,58 0.4934,7.15 1.4111,14.2668 2.0395,15.8151 0.6284,1.5483 1.1425,6.5815 1.1425,11.1849 0,4.6034 0.4844,9.6366 1.0764,11.1849 0.592,1.5483 1.466,7.9901 1.9423,14.3151 0.4763,6.325 1.3223,13.525 1.8801,16 0.5577,2.475 1.0405,6.975 1.0727,10 0.032,3.025 0.7071,7.3 1.4997,9.5 0.7925,2.2 1.4805,6.7 1.5288,10 0.048,3.3 0.7443,7.8 1.5466,10 0.8024,2.2 1.7213,7.375 2.042,11.5 0.3207,4.125 1.2195,9.1966 1.9973,11.2702 0.7777,2.0737 1.4141,6.4025 1.4141,9.6198 0,3.2172 0.9,8.6667 2,12.11 1.1,3.4433 2,7.9315 2,9.9737 0,2.0423 0.9,6.3291 2,9.5263 1.1,3.1972 2,7.526 2,9.6195 0,2.0936 0.9,6.0898 2,8.8805 1.1,2.7907 2,6.8686 2,9.062 0,2.1934 0.9,6.5486 2,9.6783 1.1,3.1297 2.0198,7.281 2.0439,9.225 0.024,1.9441 0.7362,5.3347 1.5824,7.5347 0.8462,2.2 2.161,7.15 2.9219,11 0.7609,3.85 2.0541,8.8 2.8737,11 0.8197,2.2 1.5199,5.35 1.5562,7 0.036,1.65 0.8833,4.8 1.8824,7 0.9991,2.2 2.127,6.3419 2.5064,9.2041 0.3794,2.8623 1.5672,7.1373 2.6395,9.5 1.0723,2.3628 1.9596,5.8883 1.9716,7.8345 0.012,1.9462 0.8698,5.2015 1.9061,7.234 1.0362,2.0325 2.2041,5.8296 2.5952,8.438 0.3912,2.6083 1.5144,6.328 2.4961,8.2659 0.9817,1.9379 2.1071,5.5485 2.5009,8.0235 0.3937,2.475 1.3497,5.4997 2.1243,6.7216 0.7746,1.222 1.9111,4.597 2.5255,7.5 0.6144,2.9031 1.7373,6.4934 2.4954,7.9784 0.758,1.485 1.8887,5.0807 2.5127,7.9903 0.624,2.9097 1.6985,6.1947 2.3877,7.3 0.6891,1.1053 1.8043,4.4847 2.4781,7.5097 0.6738,3.025 1.8024,6.4249 2.508,7.5552 0.7056,1.1304 1.9704,4.5054 2.8107,7.5 2.0575,7.3328 5.3648,16.5725 7.6759,21.4448 1.0435,2.2 2.557,6.025 3.3632,8.5 0.8063,2.475 2.5967,7.425 3.9788,11 1.382,3.575 3.2828,8.75 4.224,11.5 0.9411,2.75 2.775,7.295 4.0753,10.0999 1.3002,2.805 2.3641,5.7366 2.3641,6.5148 0,0.7782 0.8579,3.0156 1.9065,4.9721 1.0486,1.9564 2.4762,5.5497 3.1725,7.9851 0.6963,2.4355 1.8516,5.1254 2.5672,5.9777 0.7156,0.8524 1.9313,3.3356 2.7014,5.5184 0.7701,2.1829 2.357,5.7539 3.5263,7.9356 1.1694,2.1817 2.1261,4.3879 2.1261,4.9026 0,1.0574 4.8112,11.6844 8.5316,18.8443 1.3576,2.6128 2.4684,5.3243 2.4684,6.0255 0,0.7012 1.3359,3.9635 2.9686,7.2495 1.6328,3.286 2.9828,6.58 3,7.3201 0.017,0.7401 0.9479,2.6327 2.068,4.2058 1.1201,1.5731 2.5422,4.3425 3.1601,6.1544 0.6178,1.8118 1.9514,4.3674 2.9633,5.6791 1.012,1.3116 1.8414,2.8866 1.8431,3.5 0,0.6133 1.5767,4.2393 3.5,8.0578 1.9233,3.8184 3.4969,7.4435 3.4969,8.0557 0,0.6122 1.125,2.6379 2.5,4.5016 1.375,1.8637 2.5,4.0462 2.5,4.8499 0,0.8037 1.0567,2.8538 2.3483,4.5557 1.2916,1.7019 2.8896,4.7459 3.5511,6.7644 0.6616,2.0185 1.8549,4.2111 2.6518,4.8725 0.7968,0.6613 1.4472,1.7098 1.4452,2.3299 -0.01,1.6071 13.7757,28.4432 15.954,31.0678 0.6086,0.7334 2.2645,3.5218 3.6798,6.1966 3.6202,6.8417 7.0643,13.0982 10.1879,18.5072 1.4751,2.5543 4.1462,7.2793 5.936,10.5 1.7897,3.2208 5.0328,8.781 7.2069,12.356 2.174,3.575 4.9317,8.2862 6.1281,10.4693 2.1983,4.0112 3.0001,5.2681 8.7362,13.6942 1.7461,2.5649 3.1747,5.1098 3.1747,5.6554 0,0.5455 1.575,2.877 3.5,5.1811 1.925,2.3041 3.5,4.638 3.5,5.1865 0,0.5484 0.9195,2.1934 2.0433,3.6553 3.532,4.5948 8.9567,13.0719 8.9567,13.9966 0,0.4876 1.2375,2.4805 2.75,4.4286 1.5125,1.948 3.65,5.0104 4.75,6.8053 3.9285,6.4101 6.0393,9.5614 8.75,13.0636 1.5125,1.9541 2.7683,3.9604 2.7906,4.4585 0.022,0.4981 1.3724,2.4636 3,4.3678 1.6277,1.9042 2.9594,3.972 2.9594,4.595 0,0.6231 0.9461,1.989 2.1024,3.0355 1.1563,1.0464 2.7944,3.2536 3.6403,4.9049 0.8458,1.6513 2.6382,4.3524 3.983,6.0024 1.3449,1.65 6.9361,9.075 12.4249,16.5 5.4888,7.425 11.8628,15.9208 14.1645,18.8796 2.3017,2.9587 5.0849,6.6297 6.1849,8.1577 1.1,1.5281 3.125,4.1732 4.5,5.8781 7.5848,9.4049 9.3606,11.7916 10.2936,13.8346 0.5651,1.2375 1.3289,2.25 1.6974,2.25 0.3685,0 2.1854,2.1375 4.0376,4.75 1.8522,2.6125 4.8452,6.55 6.651,8.75 1.8058,2.2 5.1254,6.25 7.3768,9 6.0896,7.4381 8.7435,10.5475 23.2246,27.2116 7.2705,8.3664 15.5691,18.0414 18.4414,21.5 2.8723,3.4586 8.7223,10.0078 13,14.5538 4.2777,4.546 10.4776,11.4359 13.7776,15.3108 3.3,3.875 7.4625,7.9548 9.25,9.0662 1.7875,1.1114 3.25,2.448 3.25,2.9702 0,1.1474 31.6493,33.9293 38.0907,39.4538 1.3251,1.1365 3.1698,2.9365 4.0992,4 0.9295,1.0635 4.68,4.6336 8.3344,7.9336 3.6544,3.3 8.9846,8.25 11.8448,11 2.8603,2.75 6.5348,6.1428 8.1657,7.5396 1.6309,1.3968 3.9984,3.6468 5.2612,5 1.2628,1.3532 5.0131,4.9354 8.334,7.9604 3.3209,3.025 7.9127,7.3407 10.204,9.5904 2.2913,2.2497 5.9994,5.2946 8.2402,6.7665 2.2407,1.4719 5.064,4.015 6.2739,5.6515 1.2099,1.6365 3.9824,3.8848 6.1612,4.9964 2.1788,1.1115 4.7363,3.2035 5.6833,4.6488 0.947,1.4453 3.0904,3.4601 4.7632,4.4774 1.6728,1.0173 5.292,3.898 8.0428,6.4015 10.5208,9.5754 17.5173,15.4675 18.3665,15.4675 0.4854,0 3.6564,2.475 7.0465,5.5 3.3902,3.025 6.6163,5.5 7.169,5.5 0.5528,0 3.1233,1.9452 5.7122,4.3227 2.589,2.3775 6.9572,5.8132 9.7072,7.6348 2.75,1.8216 5.5672,4.1216 6.2604,5.1112 0.6933,0.9895 3.9581,3.4379 7.2553,5.4408 3.2972,2.003 6.4255,4.4463 6.9517,5.4297 0.5263,0.9833 4.1073,3.6595 7.9578,5.947 3.8504,2.2875 7.355,4.7865 7.7878,5.5533 0.4329,0.7668 3.712,3.0396 7.287,5.0508 3.575,2.0111 7.6795,4.9378 9.121,6.5036 1.4416,1.5659 5.3621,4.2308 8.7124,5.922 3.3502,1.6912 6.5334,3.901 7.0739,4.9108 0.5404,1.0098 3.7317,3.3012 7.0918,5.0921 3.3601,1.791 7.6141,4.7611 9.4534,6.6003 1.8392,1.8393 5.6232,4.499 8.4089,5.9106 2.7856,1.4116 6.5916,3.9072 8.4578,5.5457 1.8662,1.6385 6.3069,4.2865 9.8684,5.8844 3.5614,1.5979 8.0136,4.25 9.8938,5.8936 1.8802,1.6436 6.5686,4.5718 10.4186,6.5072 3.85,1.9353 7.9,4.5187 9,5.7408 1.1,1.2221 5.8494,4.1571 10.5543,6.5221 4.7049,2.365 9.181,5.0551 9.9469,5.9779 0.7659,0.9229 5.6914,3.8371 10.9457,6.476 5.2542,2.639 10.4018,5.7392 11.4391,6.8894 1.0373,1.1502 4.3206,3.0022 7.2963,4.1155 7.3989,2.7683 13.1111,5.7659 17.2975,9.0772 1.9361,1.5313 6.4452,3.9535 10.0202,5.3826 3.575,1.4291 8.75,4.1321 11.5,6.0066 2.75,1.8745 8.825,5.0806 13.5,7.1246 4.675,2.044 9.85,4.7248 11.5,5.9573 4.1987,3.1363 9.8677,5.8215 17.7909,8.4268 3.735,1.2281 9.1181,3.799 11.9624,5.7131 5.6405,3.7957 8.2715,5.0228 20.1105,9.3792 4.3252,1.5915 9.9502,4.1419 12.5,5.6676 5.8936,3.5262 8.6697,4.757 19.1362,8.4841 4.675,1.6647 11.65,4.7525 15.5,6.8617 3.85,2.1092 13.9471,6.1232 22.438,8.92 8.4908,2.7969 17.7362,6.4001 20.5452,8.0073 2.809,1.6072 14.312,6.038 25.5621,9.8463 11.2501,3.8084 24.2797,8.5294 28.9547,10.4912 4.675,1.9618 12.775,4.7421 18,6.1784 5.225,1.4363 21.65,6.5958 36.5,11.4655 28.5129,9.3501 51.0424,15.3561 92,24.5258 13.75,3.0784 30.4,6.8993 37,8.4909 6.6,1.5915 20.325,4.4693 30.5,6.395 70.7635,13.3929 92.0885,16.97 111,18.6197 28.037,2.4456 36.3801,3.3003 50,5.1218 7.975,1.0666 21.475,2.1553 30,2.4194 8.525,0.264 21.575,1.1869 29,2.0509 8.8276,1.0272 17.4802,1.3795 25,1.018 6.3664,-0.3061 16.8568,-0.01 23.5,0.6669 11.5883,1.1779 28.4423,1.2043 79,0.1237 z m 958,-1057.4464 c -52.4996,-2.9314 -107.6167,-14.0489 -154.5,-31.1638 -87.3171,-31.8755 -169.6491,-84.4946 -231.6743,-148.065 -45.9783,-47.1238 -81.093,-105.0824 -107.6787,-177.7287 -30.0104,-82.0048 -39.8281,-179.6794 -27.6413,-275 9.4065,-73.575 34.0137,-142.2266 74.3753,-207.5 22.9423,-37.1026 49.914,-68.348 88.119,-102.0816 61.0269,-53.8843 154.1856,-103.2223 240.5904,-127.4195 50.8503,-14.2403 93.8326,-20.2714 144.9096,-20.3333 30.969,-0.037 43.1976,0.7521 68.5,4.4228 51.0264,7.4025 119.9356,28.5606 162.5,49.8946 19.2838,9.6653 61.6987,34.7691 85.5,50.6043 19.7594,13.1461 34.9913,31.9411 41.4032,51.0886 9.4615,28.2542 -0.2339,65.8101 -26.6064,103.0619 -26.5925,37.5624 -54.9274,64.1715 -78.619,73.8305 -15.9887,6.5185 -28.4188,6.5782 -46.6778,0.2241 -15.1593,-5.2754 -46.6074,-22.8735 -59.4691,-33.2785 -16.749,-13.5498 -50.8876,-28.5918 -79.6008,-35.0735 -34.524,-7.7933 -78.5557,-9.9885 -110.9301,-5.5304 -54.15,7.4568 -108.4888,31.125 -156.616,68.2171 -27.1881,20.954 -54.1398,57.2779 -71.1363,95.8729 -11.9235,27.0755 -18.8208,53.3851 -22.4145,85.5 -1.5905,14.2132 -1.5979,55.7155 -0.012,70.5 3.8151,35.5783 12.2271,65.0132 27.4944,96.2076 20.876,42.6541 46.6214,72.9938 83.1849,98.029 34.9551,23.9339 69.4554,39.8942 106.1168,49.0912 54.9768,13.7916 112.2003,11.3111 169.0063,-7.3259 27.084,-8.8858 36.1855,-13.456 56.8636,-28.5534 19.8972,-14.5273 52.5292,-31.5308 69.0133,-35.9608 7.2966,-1.961 18.5488,-2.1543 25.7026,-0.4418 17.8896,4.2826 40.4577,21.2102 59.9335,44.9541 13.8284,16.8589 31.3932,43.907 40.9117,63 15.1569,30.4031 18.9686,50.8524 13.4984,72.4165 -3.6325,14.3198 -8.2379,22.174 -19.7478,33.6787 -17.9043,17.8962 -29.154,25.9702 -73.2984,52.6068 -35.8738,21.6461 -50.1766,27.8746 -104,45.2893 -44.7613,14.4826 -74.6508,21.1959 -113.3969,25.4694 -17.2781,1.9058 -53.1975,2.6362 -73.6031,1.4968 z M 3242.45,5192.7657 c -23.2391,-5.2412 -44.459,-22.8438 -56.5622,-46.9201 -7.4657,-14.851 -43.8384,-99.0511 -84.6681,-196 -13.782,-32.725 -25.2251,-59.6885 -25.429,-59.919 -0.204,-0.2304 -11.9573,0.3407 -26.1185,1.2691 -21.0439,1.3797 -41.8542,1.6846 -113.9124,1.669 l -88.1647,-0.019 -0.4686,101.25 c -0.3146,67.9774 -0.8453,104.0309 -1.6151,109.7124 -2.2453,16.5725 -12.5871,41.6439 -21.2261,51.4585 -2.2007,2.5 -7.6822,6.9618 -12.181,9.9149 -14.1638,9.2973 -28.2295,13.6826 -57.1798,17.8271 -14.2515,2.0403 -60.1381,1.7394 -74.9662,-0.4916 -21.4308,-3.2244 -33.048,-6.4641 -45.5338,-12.6984 -30.7645,-15.3609 -41.1811,-37.3992 -43.9931,-93.075 -1.2489,-24.7272 -1.2921,-819.2013 -0.046,-851.8979 1.0167,-26.6847 2.3304,-34.7003 8.1234,-49.564 7.0294,-18.0362 14.1719,-27.8632 25.8004,-35.4971 13.5283,-8.8813 32.2519,-14.7432 56.6157,-17.7253 12.7471,-1.5602 30.1983,-1.7136 195,-1.7136 167.8269,0 182.0553,0.1302 195.5,1.7893 71.4073,8.8118 135.6784,35.6582 200.7749,83.8648 25.3966,18.8073 43.4126,35.8415 60.3027,57.0162 40.931,51.3143 67.6436,111.4251 77.9148,175.3297 5.0336,31.3178 6.7594,76.7105 4.0491,106.5 -6.6756,73.3706 -29.0892,134.4675 -69.3353,189 -8.844,11.9833 -14.5715,18.7172 -27.5333,32.371 -8.855,9.3277 -10.2386,11.231 -9.7062,13.3523 0.8775,3.4961 44.6735,105.4939 67.3332,156.814 37.2672,84.4037 44.3127,102.2702 49.7074,126.0532 7.4775,32.9652 -2.442,57.123 -33.6943,82.0587 -24.3083,19.3952 -78.2542,42.9463 -111.9591,48.8779 -11.3303,1.994 -26.3969,1.7457 -36.8284,-0.607 z m -190.9517,-559.4824 c 26.0939,-4.3247 54.9786,-19.067 75.3019,-38.433 22.5234,-21.4623 32.9086,-49.213 32.9342,-88.0047 0.02,-30.3787 -6.3413,-53.3449 -20.6354,-74.5 -9.4979,-14.0567 -29.6202,-30.109 -51.1745,-40.8239 -11.8532,-5.8923 -19.6081,-8.5769 -34.5,-11.9429 -9.304,-2.103 -11.5275,-2.1546 -107.75,-2.4981 l -98.25,-0.3507 v 129.0578 129.0578 h 97.3238 c 83.5448,0 98.6583,-0.2212 106.75,-1.5623 z m 832.9262,551.0713 c -26.4406,-3.2082 -43.6033,-8.8596 -56.5183,-18.6105 -6.6247,-5.0018 -10.6168,-10.0468 -16.088,-20.3317 -8.5226,-16.0208 -11.9544,-28.7762 -13.387,-49.7577 -0.6085,-8.9123 -0.9826,-156.2163 -0.9919,-390.5591 l -0.015,-376.25 h -151.6215 c -162.5616,0 -160.1912,0.066 -180.788,-5.0282 -18.0117,-4.4548 -33.644,-16.1279 -40.4435,-30.2006 -11.3631,-23.5175 -14.7024,-78.7595 -7.1058,-117.5533 5.6163,-28.6807 16.4881,-41.6563 41.5478,-49.5879 9.824,-3.1093 21.0457,-5.3298 33.4112,-6.611 13.2686,-1.3748 849.603,-1.377 864.5,0 32.8419,3.0308 54.1948,14.0988 64.2635,33.3103 10.2184,19.4973 14.4282,62.2709 10.1049,102.6729 -2.6298,24.5765 -9.0628,42.093 -19.0779,51.9475 -9.7142,9.5584 -27.8861,16.3324 -52.4521,19.5527 -9.7299,1.2755 -33.863,1.4998 -161.3735,1.4998 h -149.9327 l -0.3115,389.75 c -0.2854,357.0868 -0.4488,390.2952 -1.9496,396.256 -2.5202,10.0097 -6.5398,20.6031 -11.5708,30.494 -11.8264,23.2507 -33.1211,34.3137 -75.2003,39.0678 -15.5726,1.7594 -60.3048,1.7243 -75,-0.059 z"
       id="path1490" />
  </g>
</svg>
